{"glyphs":{"0":{"ha":643,"x_min":16,"x_max":628,"o":"m 50 496 q 199 886 107 765 q 432 1007 290 1007 q 612 888 574 1007 q 628 769 628 841 q 593 496 628 661 q 445 106 534 225 q 211 -14 355 -14 q 30 107 67 -14 q 16 224 16 155 q 50 496 16 333 m 449 762 q 396 850 449 850 q 311 775 346 850 q 235 499 278 699 q 193 221 193 299 q 245 143 193 143 q 305 174 279 143 q 353 277 330 205 q 413 518 376 348 q 449 762 449 688 z "},"1":{"ha":643,"x_min":120,"x_max":600,"o":"m 389 0 l 208 0 l 331 582 q 387 800 350 669 q 342 759 380 792 q 199 635 312 730 l 120 747 l 435 991 l 600 991 l 389 0 z "},"2":{"ha":643,"x_min":-57,"x_max":620,"o":"m 413 1006 q 585 935 532 1006 q 620 818 620 889 q 611 739 620 782 q 517 529 587 630 q 433 422 482 478 q 186 170 376 360 l 185 164 l 510 164 l 475 0 l -57 0 l -27 138 l 202 387 q 333 538 296 490 q 393 634 370 587 q 427 730 417 681 q 432 775 432 752 q 420 815 432 798 q 363 844 402 844 q 288 825 324 844 q 199 757 252 806 l 119 865 q 274 976 207 947 q 413 1006 342 1006 z "},"3":{"ha":643,"x_min":-56,"x_max":627,"o":"m 360 332 q 204 440 360 440 l 148 440 l 178 578 l 231 578 q 363 616 313 578 q 430 729 414 654 q 435 775 435 751 q 422 818 435 799 q 350 848 401 848 q 187 783 274 848 l 130 905 q 404 1006 251 1006 q 587 942 530 1006 q 627 829 627 897 q 620 768 627 801 q 541 611 600 675 q 392 524 481 548 l 391 518 q 520 444 482 503 q 545 352 545 406 q 537 286 545 321 q 406 68 509 150 q 155 -14 304 -14 q -56 33 24 -14 l -20 199 q 165 140 64 140 q 292 177 245 140 q 355 292 339 214 q 360 332 360 313 z "},"4":{"ha":643,"x_min":-36,"x_max":627,"o":"m 494 361 l 594 361 l 562 208 l 461 208 l 417 0 l 243 0 l 288 208 l -36 208 l -4 358 l 430 991 l 627 991 l 494 361 m 411 750 l 406 750 q 326 616 370 685 l 152 361 l 320 361 l 364 570 l 387 662 l 411 750 z "},"5":{"ha":643,"x_min":-35,"x_max":637,"o":"m 367 621 q 528 543 479 621 q 559 420 559 492 q 549 329 559 378 q 413 77 515 167 q 165 -14 312 -14 q -35 36 35 -14 l 1 208 q 81 164 31 183 q 178 144 131 144 q 360 314 325 144 q 367 369 367 345 q 252 472 367 472 q 128 450 197 472 l 78 494 l 214 991 l 637 991 l 602 827 l 337 827 l 278 612 q 367 621 317 621 z "},"6":{"ha":643,"x_min":12,"x_max":645,"o":"m 412 640 q 551 559 513 640 q 571 455 571 515 q 557 328 571 396 q 430 78 523 170 q 209 -14 338 -14 q 34 96 79 -14 q 12 232 12 151 q 35 421 12 313 q 223 864 99 726 q 541 1004 347 1004 q 645 993 603 1004 l 612 840 q 522 851 569 851 q 292 715 372 851 q 220 526 250 646 l 228 526 q 412 640 300 640 m 386 402 q 323 492 386 492 q 249 450 283 492 q 202 346 215 409 q 189 239 189 283 q 247 142 189 142 q 323 188 289 142 q 376 326 357 234 q 386 402 386 369 z "},"7":{"ha":643,"x_min":17,"x_max":691,"o":"m 665 865 l 208 0 l 17 0 l 471 827 l 125 827 l 159 990 l 691 990 l 665 865 z "},"8":{"ha":643,"x_min":-12,"x_max":640,"o":"m 231 937 q 433 1004 319 1004 q 602 939 547 1004 q 640 823 640 892 q 633 760 640 793 q 573 632 618 688 q 441 525 528 575 q 537 400 513 465 q 551 326 551 363 q 544 257 551 290 q 428 61 519 136 q 212 -14 337 -14 q 28 55 86 -14 q -12 176 -12 102 q -3 252 -12 210 q 202 517 33 421 q 125 630 143 572 q 116 693 116 661 q 123 760 116 726 q 231 937 146 871 m 399 861 q 298 753 321 861 q 292 710 292 730 q 297 675 292 691 q 345 604 306 643 q 420 672 396 637 q 452 741 445 706 q 460 795 460 777 q 399 861 460 861 m 174 261 q 169 211 169 235 q 179 165 169 186 q 244 131 197 131 q 324 165 292 131 q 370 261 357 200 q 373 300 373 279 q 367 342 373 321 q 309 429 356 378 l 302 439 q 218 363 249 405 q 174 261 186 321 z "},"9":{"ha":643,"x_min":-6,"x_max":625,"o":"m 227 350 q 88 433 127 350 q 67 537 67 479 q 81 660 67 595 q 207 911 115 819 q 422 1004 301 1004 q 602 890 555 1004 q 625 749 625 832 q 602 559 625 667 q 97 -14 480 -14 q -6 -3 33 -14 l 27 153 q 110 138 68 138 q 299 217 224 138 q 416 464 374 296 l 410 464 q 329 380 376 410 q 227 350 282 350 m 252 585 q 312 498 252 498 q 389 543 351 498 q 438 642 427 588 q 450 731 450 696 q 390 847 450 847 q 262 664 302 847 q 252 585 252 618 z "},"\r":{"ha":361,"x_min":0,"x_max":0,"o":""}," ":{"ha":343,"x_min":0,"x_max":0,"o":""},"!":{"ha":376,"x_min":-12,"x_max":404,"o":"m 227 319 l 79 319 l 188 991 l 404 991 l 227 319 m 38 175 q 55 190 38 175 q 127 204 72 204 q 205 175 182 204 q 220 126 220 156 q 216 93 220 111 q 170 11 205 40 q 80 -18 134 -18 q 3 11 26 -18 q -12 60 -12 31 q -8 93 -12 75 q 38 175 3 146 z "},"\"":{"ha":619,"x_min":72,"x_max":576,"o":"m 194 633 l 72 633 l 120 991 l 298 991 l 194 633 m 472 633 l 349 633 l 397 991 l 576 991 l 472 633 z "},"#":{"ha":755,"x_min":-18,"x_max":775,"o":"m 646 711 l 775 711 l 747 581 l 599 581 l 537 410 l 675 410 l 647 278 l 492 278 l 392 0 l 262 0 l 362 278 l 239 278 l 140 0 l 10 0 l 109 278 l -18 278 l 9 410 l 157 410 l 218 581 l 82 581 l 110 711 l 266 711 l 365 991 l 492 991 l 393 711 l 517 711 l 618 991 l 745 991 l 646 711 m 346 581 l 286 410 l 408 410 l 470 581 l 346 581 z "},"$":{"ha":643,"x_min":-29,"x_max":654,"o":"m 557 416 q 562 370 562 395 q 555 310 562 344 q 457 137 532 202 q 269 61 383 73 l 239 -81 l 160 -81 l 190 58 q -29 115 62 62 l 7 282 q 221 207 111 212 l 270 436 l 248 447 q 111 560 144 503 q 90 647 90 597 q 97 708 90 675 q 192 872 119 810 q 378 946 266 934 l 401 1055 l 480 1055 l 457 947 q 654 889 563 940 l 569 745 q 425 793 490 787 l 378 578 q 388 574 382 576 q 395 570 393 571 q 397 568 397 570 q 511 496 476 531 q 557 416 547 460 m 256 708 q 254 680 254 694 q 308 615 254 639 l 346 793 q 256 708 273 782 m 300 211 q 395 306 378 224 q 397 331 397 318 q 392 356 397 345 q 341 400 382 378 l 300 211 z "},"%":{"ha":1054,"x_min":67,"x_max":985,"o":"m 214 383 q 67 554 67 383 q 85 693 67 613 q 347 1006 151 1006 q 497 831 497 1006 q 481 696 497 772 q 380 463 448 543 q 214 383 312 383 m 286 0 l 146 0 l 765 991 l 907 991 l 286 0 m 353 817 q 321 875 353 875 q 271 832 292 875 q 230 701 249 789 q 212 569 212 612 q 243 514 212 514 q 294 557 272 514 q 335 687 317 600 q 353 817 353 774 m 703 -12 q 555 159 555 -12 q 572 297 555 218 q 835 610 640 610 q 985 434 985 610 q 969 300 985 376 q 868 67 937 147 q 703 -12 800 -12 m 841 419 q 808 478 841 478 q 759 435 781 478 q 719 304 737 393 q 700 173 700 216 q 732 118 700 118 q 783 161 760 118 q 823 290 805 204 q 841 419 841 376 z "},"&":{"ha":807,"x_min":-18,"x_max":781,"o":"m 452 69 q 209 -14 342 -14 q 19 60 76 -14 q -18 184 -18 110 q -9 265 -18 221 q 216 547 27 434 q 174 675 181 629 q 172 718 172 693 q 178 774 172 742 q 280 943 201 880 q 465 1006 359 1006 q 618 947 570 1006 q 651 846 651 907 q 644 785 651 817 q 577 648 629 712 q 426 519 526 584 l 523 325 q 623 521 569 386 l 781 521 q 596 183 715 332 l 689 0 l 486 0 l 452 69 m 471 831 q 429 852 458 852 q 377 830 399 852 q 345 766 354 808 q 342 733 342 749 q 372 633 342 693 q 442 695 420 664 q 474 768 465 724 q 478 803 478 786 q 471 831 478 819 m 277 432 q 172 233 172 353 q 186 183 172 205 q 260 147 208 147 q 389 197 327 147 l 277 432 z "},"'":{"ha":342,"x_min":72,"x_max":298,"o":"m 194 633 l 72 633 l 120 991 l 298 991 l 194 633 z "},"(":{"ha":452,"x_min":24,"x_max":543,"o":"m 125 -220 q 24 157 24 -64 q 49 380 24 264 q 173 717 87 560 q 383 991 258 873 l 543 991 q 338 705 420 862 q 220 382 256 549 q 197 161 197 269 q 202 58 197 109 q 283 -220 220 -98 l 125 -220 z "},")":{"ha":452,"x_min":-90,"x_max":425,"o":"m 326 991 q 425 610 425 832 q 400 380 425 500 q 278 48 363 202 q 68 -220 193 -106 l -90 -220 q 111 60 28 -94 q 254 605 254 330 q 166 991 254 822 l 326 991 z "},"*":{"ha":646,"x_min":31,"x_max":616,"o":"m 393 847 l 616 905 l 606 753 l 410 741 l 500 574 l 349 500 l 299 676 l 182 500 l 60 574 l 218 741 l 31 755 l 88 905 l 281 847 l 300 1055 l 462 1055 l 393 847 z "},"+":{"ha":623,"x_min":56,"x_max":564,"o":"m 392 559 l 564 559 l 534 419 l 362 419 l 309 170 l 176 170 l 229 419 l 56 419 l 86 559 l 258 559 l 313 812 l 446 812 l 392 559 z "},",":{"ha":375,"x_min":-79,"x_max":246,"o":"m 240 161 l 246 146 q 58 -179 182 9 l -79 -179 q 61 161 6 9 l 240 161 z "},"-":{"ha":439,"x_min":32,"x_max":407,"o":"m 373 293 l 32 293 l 66 452 l 407 452 l 373 293 z "},".":{"ha":375,"x_min":-5,"x_max":228,"o":"m 45 175 q 63 190 45 175 q 135 204 80 204 q 213 175 190 204 q 228 126 228 156 q 224 93 228 111 q 177 11 213 40 q 87 -18 141 -18 q 11 11 33 -18 q -5 60 -5 31 q -1 93 -5 75 q 45 175 11 146 z "},"/":{"ha":562,"x_min":-94,"x_max":659,"o":"m 79 0 l -94 0 l 486 991 l 659 991 l 79 0 z "},":":{"ha":375,"x_min":11,"x_max":364,"o":"m 182 742 q 199 757 182 742 q 271 771 216 771 q 349 742 326 771 q 364 693 364 723 q 360 660 364 678 q 313 578 349 607 q 223 549 277 549 q 146 578 170 549 q 132 627 132 597 q 136 660 132 642 q 182 742 147 713 m 61 175 q 78 190 61 175 q 151 204 96 204 q 228 175 205 204 q 243 126 243 156 q 239 93 243 111 q 193 11 229 40 q 103 -18 157 -18 q 26 11 49 -18 q 11 60 11 31 q 15 93 11 75 q 61 175 26 146 z "},";":{"ha":375,"x_min":-94,"x_max":354,"o":"m 172 742 q 189 757 172 742 q 261 771 206 771 q 339 742 316 771 q 354 693 354 723 q 350 660 354 678 q 303 578 339 607 q 213 549 267 549 q 137 578 159 549 q 121 627 121 597 q 125 660 121 642 q 172 742 137 713 m 227 161 l 233 146 q 44 -179 167 7 l -94 -179 q 47 161 -14 -5 l 227 161 z "},"<":{"ha":623,"x_min":61,"x_max":624,"o":"m 591 685 l 220 490 l 509 294 l 476 142 l 61 437 l 83 543 l 624 838 l 591 685 z "},"=":{"ha":623,"x_min":28,"x_max":593,"o":"m 564 553 l 85 553 l 115 692 l 593 692 l 564 553 m 507 286 l 28 286 l 58 427 l 536 427 l 507 286 z "},">":{"ha":623,"x_min":-2,"x_max":562,"o":"m 562 543 l 539 437 l -2 142 l 31 294 l 404 490 l 113 685 l 146 838 l 562 543 z "},"?":{"ha":530,"x_min":27,"x_max":561,"o":"m 361 1006 q 525 943 474 1006 q 561 835 561 901 q 553 771 561 805 q 503 640 537 694 q 382 510 469 587 q 308 433 327 460 q 280 361 290 406 l 271 319 l 111 319 l 121 367 q 165 480 136 432 q 260 585 195 528 q 342 671 324 642 q 374 750 363 701 q 378 788 378 768 q 369 823 378 807 q 311 850 353 850 q 145 798 237 850 l 111 933 q 361 1006 233 1006 m 78 175 q 95 190 78 175 q 168 204 113 204 q 245 175 222 204 q 260 126 260 155 q 256 93 260 111 q 210 11 245 41 q 120 -18 174 -18 q 43 11 66 -18 q 27 60 27 31 q 31 93 27 75 q 78 175 43 146 z "},"@":{"ha":1007,"x_min":22,"x_max":989,"o":"m 675 315 q 709 273 675 273 q 778 338 744 273 q 833 509 811 402 q 849 648 849 586 q 818 787 849 732 q 626 880 764 880 q 433 820 524 880 q 276 652 341 760 q 182 410 212 545 q 166 273 166 334 q 202 114 166 178 q 408 8 262 8 q 669 69 529 8 l 643 -54 q 381 -114 519 -114 q 374 -114 378 -114 q 201 -79 277 -114 q 26 189 51 -9 q 22 249 22 218 q 41 403 22 320 q 168 716 79 577 q 385 927 258 852 q 655 1002 513 1002 q 937 871 854 1002 q 989 669 989 791 q 970 507 989 595 q 860 249 935 342 q 684 157 784 157 q 607 183 637 157 q 576 252 577 209 l 570 252 q 411 157 499 157 q 290 220 323 157 q 273 305 273 256 q 284 410 273 354 q 402 651 317 560 q 601 742 489 742 q 768 713 682 742 l 687 397 l 682 371 q 675 315 675 337 m 416 339 q 456 273 416 273 q 515 318 489 273 q 568 463 541 363 l 610 618 q 569 625 593 625 q 485 565 525 625 q 425 410 445 505 q 416 339 416 368 z "},"A":{"ha":742,"x_min":-106,"x_max":636,"o":"m 636 0 l 451 0 l 447 250 l 189 250 l 79 0 l -106 0 l 351 996 l 602 996 l 636 0 m 444 644 q 444 667 444 648 q 445 766 444 686 q 448 863 446 846 q 397 728 421 788 q 260 414 372 668 l 448 414 l 444 644 z "},"B":{"ha":704,"x_min":-18,"x_max":697,"o":"m 446 991 q 658 932 600 991 q 697 818 697 891 q 688 741 697 783 q 620 596 670 653 q 504 526 570 538 l 502 519 q 606 442 581 499 q 621 371 621 410 q 612 288 621 331 q 494 76 582 152 q 281 0 406 0 l -18 0 l 193 991 l 446 991 m 366 593 q 454 623 423 593 q 498 717 486 654 q 503 764 503 740 q 490 805 503 788 q 410 832 469 832 l 332 832 l 281 593 l 366 593 m 283 161 q 427 306 397 161 q 433 353 433 332 q 339 439 433 439 l 249 439 l 190 161 l 283 161 z "},"C":{"ha":643,"x_min":33,"x_max":712,"o":"m 296 -14 q 66 119 128 -14 q 33 288 33 192 q 56 494 33 385 q 229 871 109 736 q 515 1006 351 1006 q 617 990 571 1006 q 712 939 664 975 l 619 789 q 556 830 586 815 q 490 844 527 844 q 346 752 410 844 q 245 493 281 660 q 224 322 224 393 q 351 149 224 149 q 527 199 429 149 l 492 35 q 296 -14 409 -14 z "},"D":{"ha":775,"x_min":-18,"x_max":741,"o":"m 458 991 q 700 863 631 991 q 741 679 741 789 q 720 505 741 602 q 541 130 669 260 q 225 0 412 0 l -18 0 l 193 991 l 458 991 m 260 161 q 427 245 361 161 q 530 500 493 330 q 549 659 549 593 q 417 832 549 832 l 343 832 l 201 161 l 260 161 z "},"E":{"ha":591,"x_min":-18,"x_max":640,"o":"m 606 832 l 343 832 l 293 596 l 536 596 l 503 436 l 259 436 l 201 161 l 463 161 l 429 0 l -18 0 l 193 991 l 640 991 l 606 832 z "},"F":{"ha":568,"x_min":-18,"x_max":637,"o":"m 603 832 l 342 832 l 283 557 l 527 557 l 493 397 l 250 397 l 165 0 l -18 0 l 193 991 l 637 991 l 603 832 z "},"G":{"ha":754,"x_min":34,"x_max":785,"o":"m 308 -14 q 69 118 136 -14 q 34 289 34 191 q 57 497 34 387 q 243 871 108 736 q 571 1006 378 1006 q 785 945 689 1006 l 694 794 q 547 843 621 843 q 360 749 442 843 q 245 493 279 654 q 224 335 224 396 q 235 237 224 275 q 345 149 260 149 q 439 160 389 149 l 487 387 l 364 387 l 399 550 l 702 550 l 593 41 q 308 -14 453 -14 z "},"H":{"ha":787,"x_min":-18,"x_max":805,"o":"m 595 0 l 410 0 l 503 435 l 259 435 l 167 0 l -18 0 l 193 991 l 377 991 l 294 597 l 537 597 l 621 991 l 805 991 l 595 0 z "},"I":{"ha":416,"x_min":16,"x_max":399,"o":"m 189 0 l 16 0 l 226 991 l 399 991 l 189 0 z "},"J":{"ha":359,"x_min":-237,"x_max":408,"o":"m -123 -286 q -126 -286 -124 -286 q -237 -269 -200 -286 l -203 -109 q -122 -122 -160 -122 q -33 -86 -66 -122 q 17 21 1 -51 l 223 991 l 408 991 l 203 31 q 83 -200 175 -114 q -123 -286 -9 -286 z "},"K":{"ha":705,"x_min":-18,"x_max":808,"o":"m 488 562 l 600 0 l 404 0 l 330 424 l 241 350 l 167 0 l -18 0 l 193 991 l 377 991 l 273 500 l 369 648 l 610 991 l 808 991 l 488 562 z "},"L":{"ha":558,"x_min":-18,"x_max":456,"o":"m 201 161 l 456 161 l 422 0 l -18 0 l 193 991 l 377 991 l 201 161 z "},"M":{"ha":1089,"x_min":-18,"x_max":1107,"o":"m 480 991 l 480 212 l 486 212 l 819 991 l 1107 991 l 897 0 l 722 0 l 864 672 q 910 843 882 752 l 905 843 l 538 0 l 336 0 l 327 844 l 319 844 q 294 665 313 751 l 153 0 l -18 0 l 193 991 l 480 991 z "},"N":{"ha":869,"x_min":-18,"x_max":887,"o":"m 289 718 q 268 542 289 640 l 153 0 l -18 0 l 193 991 l 419 991 l 572 281 l 580 281 q 603 450 581 349 l 718 991 l 887 991 l 677 0 l 452 0 l 298 718 l 289 718 z "},"O":{"ha":827,"x_min":34,"x_max":793,"o":"m 58 498 q 230 876 110 745 q 523 1007 350 1007 q 758 875 695 1007 q 793 705 793 802 q 770 497 793 608 q 597 119 718 251 q 305 -14 477 -14 q 68 118 134 -14 q 34 288 34 190 q 58 498 34 386 m 223 322 q 340 150 223 150 q 581 497 507 150 q 604 679 604 605 q 489 844 604 844 q 343 756 405 844 q 245 497 281 668 q 223 322 223 395 z "},"P":{"ha":665,"x_min":-18,"x_max":680,"o":"m 444 991 q 680 787 680 991 q 669 686 680 742 q 537 444 635 528 q 289 359 439 359 l 243 359 l 167 0 l -18 0 l 193 991 l 444 991 m 312 519 q 421 557 380 519 q 480 679 463 595 q 488 743 488 712 q 475 795 488 773 q 388 832 452 832 l 343 832 l 277 519 l 312 519 z "},"Q":{"ha":827,"x_min":57,"x_max":817,"o":"m 329 -14 q 92 118 157 -14 q 57 289 57 191 q 81 498 57 387 q 254 876 134 745 q 546 1007 374 1007 q 782 875 719 1007 q 817 706 817 803 q 793 497 817 608 q 687 210 758 327 q 517 35 617 92 l 642 -236 l 429 -236 l 339 -14 l 329 -14 m 247 322 q 363 150 247 150 q 604 497 530 150 q 627 678 627 604 q 513 844 627 844 q 367 756 429 844 q 269 497 305 668 q 247 322 247 395 z "},"R":{"ha":694,"x_min":-18,"x_max":682,"o":"m 434 991 q 644 919 587 991 q 682 793 682 872 q 671 697 682 750 q 488 435 631 509 l 587 0 l 389 0 l 315 386 l 249 386 l 167 0 l -18 0 l 193 991 l 434 991 m 330 545 q 430 581 393 545 q 483 692 467 617 q 490 751 490 723 q 389 832 490 832 l 343 832 l 282 545 l 330 545 z "},"S":{"ha":574,"x_min":-52,"x_max":629,"o":"m 176 147 q 262 176 229 147 q 306 256 295 204 q 309 285 309 271 q 293 346 309 317 q 213 432 271 386 q 130 520 155 479 q 96 612 104 561 q 94 656 94 629 q 104 729 94 684 q 217 931 132 857 q 422 1006 305 1006 q 629 942 538 1006 l 536 794 q 403 843 463 843 q 328 814 359 843 q 286 733 298 785 q 283 693 283 716 q 296 646 283 671 q 379 561 317 608 q 486 428 463 495 q 500 350 500 389 q 492 273 500 311 q 376 60 462 134 q 159 -14 290 -14 q -52 37 28 -14 l -13 220 q 176 147 83 147 z "},"T":{"ha":600,"x_min":90,"x_max":687,"o":"m 653 829 l 463 829 l 287 0 l 103 0 l 279 829 l 90 829 l 123 991 l 687 991 l 653 829 z "},"U":{"ha":781,"x_min":39,"x_max":804,"o":"m 667 350 q 530 80 630 173 q 280 -14 430 -14 q 73 79 130 -14 q 39 222 39 134 q 54 353 39 280 l 191 991 l 374 991 l 235 339 q 224 258 224 293 q 320 150 224 150 q 420 198 378 150 q 481 335 463 246 l 621 991 l 804 991 l 667 350 z "},"V":{"ha":700,"x_min":105,"x_max":805,"o":"m 292 991 l 292 386 q 279 164 292 305 q 363 386 320 288 l 619 991 l 805 991 l 361 0 l 127 0 l 105 991 l 292 991 z "},"W":{"ha":1100,"x_min":87,"x_max":1193,"o":"m 804 0 l 574 0 l 587 519 q 608 771 588 631 l 593 721 l 522 517 l 317 0 l 87 0 l 117 991 l 298 991 l 269 432 q 247 168 262 330 q 334 428 305 357 l 559 991 l 751 991 l 737 428 q 715 167 732 315 q 806 432 781 366 l 1010 991 l 1193 991 l 804 0 z "},"X":{"ha":656,"x_min":-105,"x_max":745,"o":"m 433 507 l 552 0 l 360 0 l 294 355 l 87 0 l -105 0 l 231 515 l 122 991 l 308 991 l 370 665 l 552 991 l 745 991 l 433 507 z "},"Y":{"ha":652,"x_min":105,"x_max":757,"o":"m 395 397 l 311 0 l 130 0 l 212 390 l 105 991 l 300 991 l 349 600 l 564 991 l 757 991 l 395 397 z "},"Z":{"ha":595,"x_min":-76,"x_max":661,"o":"m 633 863 l 168 161 l 494 161 l 460 0 l -76 0 l -49 129 l 417 831 l 110 831 l 144 991 l 661 991 l 633 863 z "},"[":{"ha":440,"x_min":-39,"x_max":537,"o":"m 509 857 l 357 857 l 157 -85 l 308 -85 l 279 -220 l -39 -220 l 219 991 l 537 991 l 509 857 z "},"\\":{"ha":562,"x_min":115,"x_max":449,"o":"m 449 0 l 274 0 l 115 991 l 290 991 l 449 0 z "},"]":{"ha":440,"x_min":-97,"x_max":479,"o":"m 221 -220 l -97 -220 l -68 -85 l 83 -85 l 283 857 l 132 857 l 161 991 l 479 991 l 221 -220 z "},"^":{"ha":739,"x_min":-58,"x_max":664,"o":"m 664 357 l 511 357 l 382 804 l 92 357 l -58 357 l 374 997 l 465 997 l 664 357 z "},"_":{"ha":472,"x_min":-13,"x_max":485,"o":"m 465 -220 l -13 -220 l 7 -125 l 485 -125 l 465 -220 z "},"`":{"ha":755,"x_min":231,"x_max":524,"o":"m 235 1064 l 450 1064 q 481 961 459 1026 q 524 860 504 896 l 519 842 l 393 842 q 295 952 347 886 q 231 1050 243 1019 l 235 1064 z "},"a":{"ha":648,"x_min":-20,"x_max":616,"o":"m 157 700 q 411 771 286 771 q 585 703 536 771 q 616 591 616 659 q 606 507 616 553 l 498 0 l 366 0 l 353 103 l 349 103 q 247 12 295 37 q 133 -14 199 -14 q 15 49 50 -14 q 5 225 -20 111 q 106 399 29 340 q 317 464 184 458 l 418 468 l 429 522 q 433 559 433 543 q 360 628 433 628 q 193 575 293 628 l 157 700 m 186 182 q 236 127 186 127 q 325 172 286 127 q 380 290 364 216 l 393 354 l 337 351 q 240 316 275 348 q 191 221 204 284 q 186 182 186 199 z "},"b":{"ha":689,"x_min":-34,"x_max":629,"o":"m 471 770 q 611 667 574 770 q 629 546 629 618 q 609 379 629 475 q 487 89 568 191 q 302 -14 406 -14 q 216 9 250 -14 q 159 86 182 32 l 148 86 l 99 0 l -34 0 l 190 1055 l 370 1055 l 318 808 q 311 779 313 786 q 305 757 309 772 q 277 657 297 726 l 286 657 q 375 744 331 718 q 471 770 418 770 m 208 233 q 276 142 208 142 q 425 382 374 142 q 441 513 441 461 q 376 616 441 616 q 291 568 325 616 q 231 399 258 519 l 227 380 q 208 233 208 286 z "},"c":{"ha":515,"x_min":31,"x_max":568,"o":"m 217 247 q 292 142 217 142 q 444 189 359 142 l 410 31 q 243 -14 329 -14 q 58 85 108 -14 q 31 213 31 139 q 50 374 31 288 q 180 672 92 574 q 407 770 268 770 q 568 722 501 770 l 486 582 q 393 615 438 615 q 298 556 336 615 q 234 375 260 497 q 217 247 217 298 z "},"d":{"ha":689,"x_min":0,"x_max":727,"o":"m 353 98 q 164 -14 271 -14 q 19 90 57 -14 q 0 212 0 140 q 20 376 0 283 q 140 665 58 560 q 325 770 221 770 q 409 744 377 770 q 460 659 441 718 l 471 659 q 493 803 485 761 l 547 1055 l 727 1055 l 503 0 l 369 0 l 359 98 l 353 98 m 187 239 q 252 139 187 139 q 336 184 302 139 q 396 351 369 231 l 401 375 q 420 518 420 465 q 416 560 420 543 q 351 614 406 614 q 205 374 256 614 q 187 239 187 292 z "},"e":{"ha":639,"x_min":34,"x_max":621,"o":"m 272 -14 q 70 87 131 -14 q 34 240 34 148 q 49 372 34 300 q 185 665 89 560 q 410 770 282 770 q 589 680 537 770 q 621 545 621 626 q 607 428 621 492 l 586 332 l 223 332 q 216 252 216 292 q 232 182 216 212 q 331 132 260 132 q 523 187 419 132 l 492 39 q 272 -14 393 -14 m 445 538 q 382 631 445 631 q 309 588 342 631 q 254 463 275 546 l 437 463 q 445 538 445 506 z "},"f":{"ha":415,"x_min":-6,"x_max":570,"o":"m 441 1063 q 570 1032 513 1063 l 494 895 q 430 911 463 911 q 377 886 397 911 q 347 811 358 862 l 335 755 l 460 755 l 429 612 l 304 612 l 174 0 l -6 0 l 124 612 l 37 612 l 56 703 l 155 757 l 168 814 q 260 1002 194 941 q 441 1063 326 1063 z "},"g":{"ha":635,"x_min":-66,"x_max":734,"o":"m 292 150 l 401 150 q 538 98 498 150 q 564 9 564 64 q 556 -58 564 -22 q 425 -262 528 -191 q 156 -334 321 -334 q -26 -279 31 -334 q -66 -176 -66 -239 q 1 -12 -66 -80 q 124 57 50 35 q 76 100 91 71 q 66 135 66 118 q 68 165 66 153 q 111 242 77 208 q 172 292 127 259 q 117 379 132 320 q 110 440 110 408 q 118 510 110 473 q 223 702 144 634 q 425 770 303 770 q 476 764 446 770 q 519 754 506 759 l 734 754 l 712 648 l 617 628 q 626 574 626 604 q 618 509 626 544 q 514 321 593 389 q 317 253 435 253 q 269 258 285 253 q 247 241 254 248 q 220 197 224 220 q 233 162 215 174 q 292 150 250 150 m 399 648 q 294 509 323 648 q 286 446 286 472 q 340 375 286 375 q 443 510 414 375 q 451 577 451 549 q 399 648 451 648 m 296 -8 l 209 -8 q 144 -36 172 -8 q 106 -110 117 -63 q 104 -134 104 -123 q 120 -179 104 -161 q 195 -203 143 -203 q 324 -172 276 -203 q 385 -86 372 -142 q 388 -55 388 -72 q 375 -26 388 -37 q 296 -8 356 -8 z "},"h":{"ha":704,"x_min":-35,"x_max":640,"o":"m 477 770 q 640 599 640 770 q 627 493 640 552 l 523 0 l 341 0 l 437 450 q 447 534 447 499 q 389 616 447 616 q 289 553 328 616 q 222 363 250 490 l 145 0 l -35 0 l 189 1055 l 369 1055 l 319 821 q 277 659 310 778 l 286 659 q 477 770 363 770 z "},"i":{"ha":336,"x_min":-34,"x_max":360,"o":"m 161 953 q 203 1024 171 998 q 280 1050 235 1050 q 346 1024 326 1050 q 360 979 360 1006 q 357 953 360 967 q 316 882 348 907 q 239 856 283 856 q 174 882 195 856 q 159 927 159 899 q 161 953 159 939 m 146 0 l -34 0 l 127 755 l 307 755 l 146 0 z "},"j":{"ha":339,"x_min":-183,"x_max":399,"o":"m 201 953 q 243 1024 211 998 q 320 1050 275 1050 q 386 1024 366 1050 q 399 979 399 1006 q 397 953 399 967 q 356 882 387 908 q 279 856 324 856 q 213 882 235 856 q 199 926 199 899 q 201 953 199 939 m -93 -334 q -183 -317 -150 -334 l -152 -167 q -96 -179 -122 -179 q -7 -64 -32 -179 l 167 755 l 347 755 l 168 -87 q 75 -270 142 -205 q -93 -334 7 -334 z "},"k":{"ha":654,"x_min":-35,"x_max":688,"o":"m 264 558 l 223 407 l 229 407 l 293 497 l 497 755 l 688 755 l 431 446 l 541 0 l 352 0 l 283 319 l 199 256 l 145 0 l -35 0 l 189 1055 l 369 1055 l 264 558 z "},"l":{"ha":332,"x_min":-35,"x_max":369,"o":"m 145 0 l -35 0 l 189 1055 l 369 1055 l 145 0 z "},"m":{"ha":1078,"x_min":-5,"x_max":1044,"o":"m 886 770 q 1024 699 987 770 q 1044 606 1044 660 q 1031 493 1044 553 l 926 0 l 745 0 l 841 450 q 851 534 851 500 q 794 616 851 616 q 696 557 735 616 q 629 367 657 498 l 551 0 l 370 0 l 466 450 q 476 534 476 499 q 417 616 476 616 q 320 557 359 616 q 252 363 281 497 l 175 0 l -5 0 l 155 755 l 298 755 l 300 659 l 311 659 q 401 742 349 714 q 510 770 454 770 q 667 639 648 770 l 673 639 q 886 770 759 770 z "},"n":{"ha":704,"x_min":-5,"x_max":671,"o":"m 479 536 q 420 616 479 616 q 321 559 361 616 q 252 363 282 502 l 175 0 l -5 0 l 155 755 l 298 755 l 300 659 l 311 659 q 399 741 347 711 q 511 770 451 770 q 671 603 671 770 q 658 493 671 555 l 553 0 l 371 0 l 467 450 q 479 536 479 500 z "},"o":{"ha":686,"x_min":35,"x_max":652,"o":"m 50 379 q 190 667 90 564 q 426 770 290 770 q 618 664 562 770 q 652 513 652 602 q 636 379 652 452 q 496 90 597 194 q 258 -14 395 -14 q 254 -14 256 -14 q 69 92 125 -14 q 35 246 35 157 q 50 379 35 307 m 469 508 q 393 615 469 615 q 299 557 337 615 q 235 379 260 499 q 218 250 218 302 q 293 140 218 140 q 452 379 401 140 q 469 508 469 456 z "},"p":{"ha":689,"x_min":-41,"x_max":694,"o":"m 349 657 q 534 770 429 770 q 676 667 640 770 q 694 548 694 619 q 673 379 694 477 q 552 92 634 197 q 364 -14 469 -14 q 281 9 314 -14 q 229 86 249 32 l 220 86 q 207 -25 210 -8 l 141 -334 l -41 -334 l 191 755 l 330 755 l 341 657 l 349 657 m 273 241 q 343 142 273 142 q 489 382 438 142 q 507 515 507 463 q 443 616 507 616 q 356 567 390 616 q 296 404 322 518 l 292 380 q 273 241 273 294 z "},"q":{"ha":689,"x_min":64,"x_max":728,"o":"m 409 98 q 226 -14 331 -14 q 83 90 121 -14 q 64 211 64 140 q 84 376 64 283 q 203 665 122 559 q 388 770 285 770 q 474 744 441 770 q 526 659 507 718 l 535 659 l 575 755 l 728 755 l 496 -334 l 316 -334 l 384 -16 q 416 98 388 5 l 409 98 m 251 235 q 313 138 251 138 q 401 188 366 138 q 460 350 436 238 l 465 375 q 484 514 484 465 q 468 589 484 564 q 414 614 451 614 q 269 374 320 614 q 251 235 251 288 z "},"r":{"ha":468,"x_min":-5,"x_max":543,"o":"m 481 770 q 543 760 515 770 l 486 585 q 437 591 468 591 q 325 539 372 591 q 258 389 279 488 l 175 0 l -5 0 l 155 755 l 304 755 l 299 637 l 305 637 q 392 739 350 708 q 481 770 433 770 z "},"s":{"ha":519,"x_min":-33,"x_max":550,"o":"m 1 187 q 79 144 35 161 q 164 127 123 127 q 231 148 204 127 q 267 223 267 176 q 251 268 267 246 q 184 326 235 290 q 88 430 113 375 q 74 497 74 463 q 178 713 74 639 q 365 770 257 770 q 550 717 473 770 l 464 587 q 345 627 400 627 q 290 609 311 627 q 262 564 268 591 q 260 540 260 555 q 273 506 260 526 q 343 448 287 487 q 422 378 399 408 q 455 278 455 334 q 449 221 455 252 q 347 48 425 109 q 150 -14 268 -14 q -33 31 32 -14 l 1 187 z "},"t":{"ha":450,"x_min":36,"x_max":479,"o":"m 224 186 q 273 139 224 139 q 359 158 312 139 l 329 17 q 190 -14 278 -14 q 36 134 36 -14 q 47 221 36 172 l 130 612 l 56 612 l 73 693 l 182 758 l 262 918 l 377 918 l 342 755 l 479 755 l 449 612 l 312 612 l 228 215 q 224 186 224 199 z "},"u":{"ha":704,"x_min":33,"x_max":711,"o":"m 227 219 q 285 139 227 139 q 382 196 343 139 q 452 393 422 254 l 529 755 l 711 755 l 551 0 l 406 0 l 404 97 l 395 97 q 306 16 359 45 q 193 -14 252 -14 q 33 153 33 -14 q 46 262 33 201 l 151 755 l 334 755 l 238 306 q 227 219 227 254 z "},"v":{"ha":619,"x_min":80,"x_max":699,"o":"m 271 755 l 271 318 q 266 229 271 283 q 259 144 263 180 l 262 144 q 295 246 273 189 q 512 755 317 303 l 699 755 l 341 0 l 117 0 l 80 755 l 271 755 z "},"w":{"ha":1003,"x_min":84,"x_max":1069,"o":"m 758 0 l 523 0 l 541 439 l 553 624 l 551 624 q 505 489 517 522 q 316 0 493 456 l 84 0 l 94 755 l 275 755 l 256 339 q 235 136 252 266 l 239 136 q 303 340 254 194 l 466 755 l 698 755 l 684 339 q 663 136 682 270 l 665 136 q 732 339 701 259 l 892 755 l 1069 755 l 758 0 z "},"x":{"ha":603,"x_min":-71,"x_max":665,"o":"m 397 386 l 513 0 l 324 0 l 268 241 l 117 0 l -71 0 l 209 386 l 98 755 l 286 755 l 337 525 l 479 755 l 665 755 l 397 386 z "},"y":{"ha":619,"x_min":-84,"x_max":735,"o":"m 9 -334 q -84 -322 -43 -334 l -52 -171 q 9 -179 -26 -179 q 153 -60 99 -179 l 176 -12 l 116 755 l 303 755 l 317 329 q 317 279 317 315 q 308 170 317 244 l 312 170 q 330 227 316 184 l 353 293 q 545 755 364 325 l 735 755 l 347 -54 q 197 -268 276 -203 q 9 -334 117 -334 z "},"z":{"ha":496,"x_min":-52,"x_max":538,"o":"m 511 628 l 184 146 l 418 146 l 388 0 l -52 0 l -28 115 l 309 610 l 92 610 l 123 755 l 538 755 l 511 628 z "},"{":{"ha":500,"x_min":1,"x_max":607,"o":"m 332 270 q 326 228 332 252 l 282 22 q 279 -16 279 5 q 291 -51 279 -36 q 380 -77 311 -75 l 349 -220 q 136 -177 189 -218 q 98 -83 98 -148 q 104 -28 98 -58 l 150 187 q 153 219 153 204 q 125 281 153 260 q 1 310 87 310 l 33 461 q 233 578 208 461 l 280 800 q 375 948 304 908 q 607 991 446 989 l 576 848 q 478 823 509 846 q 437 750 448 800 l 393 545 q 203 390 363 413 l 202 382 q 332 270 332 361 z "},"|":{"ha":704,"x_min":136,"x_max":568,"o":"m 277 -319 l 136 -319 l 428 1053 l 568 1053 l 277 -319 z "},"}":{"ha":500,"x_min":-106,"x_max":500,"o":"m 404 855 q 398 800 404 830 l 352 583 q 347 549 347 565 q 376 489 347 510 q 500 461 413 461 l 467 310 q 331 281 380 310 q 268 187 281 252 l 222 -28 q 125 -176 199 -134 q -106 -220 53 -220 l -76 -77 q 23 -51 -7 -75 q 64 22 54 -27 l 108 228 l 109 234 q 299 382 136 358 l 300 390 q 172 509 172 410 q 176 545 172 526 l 219 750 q 223 787 223 767 q 210 823 223 808 q 121 848 189 846 l 151 991 q 365 948 311 991 q 404 855 404 917 z "},"~":{"ha":623,"x_min":26,"x_max":596,"o":"m 408 379 q 277 422 351 379 q 212 455 228 450 q 173 460 196 460 q 26 378 113 460 l 58 526 q 214 600 134 600 q 268 592 242 600 q 339 559 294 585 q 403 527 383 534 q 452 519 423 519 q 596 602 511 519 l 565 453 q 408 379 494 379 z "},"¡":{"ha":376,"x_min":-31,"x_max":387,"o":"m 159 647 q 205 729 170 700 q 295 758 241 758 q 372 729 348 758 q 387 680 387 709 q 383 647 387 665 q 337 565 372 593 q 248 536 302 536 q 171 565 193 536 q 155 615 155 584 q 159 647 155 629 m 189 -250 l -31 -250 l 146 421 l 296 421 l 189 -250 z "},"¢":{"ha":643,"x_min":83,"x_max":621,"o":"m 270 374 q 344 268 270 268 q 495 317 412 268 l 461 158 q 334 117 401 123 l 307 -14 l 195 -14 l 223 122 q 83 347 83 161 q 101 500 83 414 q 208 768 138 671 q 387 889 278 865 l 410 1003 l 523 1003 l 500 895 q 621 850 569 884 l 538 708 q 446 742 487 742 q 351 683 389 742 q 286 501 313 625 q 270 374 270 425 z "},"£":{"ha":643,"x_min":-56,"x_max":694,"o":"m 513 1006 q 694 957 620 1006 l 606 814 q 490 850 552 850 q 386 724 414 850 l 355 579 l 519 579 l 490 441 l 326 441 l 307 351 q 178 164 281 229 l 541 164 l 505 0 l -56 0 l -22 155 q 77 229 48 190 q 122 335 109 269 l 145 441 l 40 441 l 69 579 l 174 579 l 205 728 q 313 934 235 863 q 513 1006 392 1006 z "},"¤":{"ha":754,"x_min":15,"x_max":741,"o":"m 104 435 q 178 627 104 534 l 109 713 l 221 806 l 289 720 q 432 757 359 757 q 559 718 506 757 l 666 806 l 741 715 l 635 628 q 649 555 649 591 q 576 353 649 440 l 643 268 l 532 176 l 463 261 q 316 225 392 225 q 190 261 239 225 l 87 178 l 15 269 l 119 354 q 104 435 104 392 m 494 587 q 406 627 463 627 q 301 587 349 627 q 241 490 254 548 q 238 460 238 475 q 260 395 238 423 q 349 355 292 355 q 454 395 406 355 q 514 490 502 435 q 517 520 517 506 q 494 587 517 557 z "},"¥":{"ha":643,"x_min":-7,"x_max":744,"o":"m 449 482 l 575 482 l 551 367 l 385 367 l 364 271 l 530 271 l 505 155 l 340 155 l 307 0 l 127 0 l 159 155 l -7 155 l 17 271 l 184 271 l 205 367 l 38 367 l 62 482 l 189 482 l 109 991 l 301 991 l 338 572 l 552 991 l 744 991 l 449 482 z "},"¦":{"ha":704,"x_min":136,"x_max":568,"o":"m 452 504 l 311 504 l 428 1053 l 568 1053 l 452 504 m 277 -319 l 136 -319 l 253 229 l 393 229 l 277 -319 z "},"§":{"ha":591,"x_min":-51,"x_max":629,"o":"m 404 334 q 456 230 456 288 q 452 191 456 212 q 354 33 430 90 q 159 -24 277 -24 q -51 16 22 -24 l -23 146 q 166 97 69 97 q 253 116 222 97 q 292 178 283 136 q 294 188 294 183 q 279 225 294 205 q 221 273 264 245 q 107 359 137 326 q 60 476 60 412 q 109 623 60 557 q 189 693 142 666 q 136 814 136 734 q 141 861 136 837 q 234 1004 160 951 q 415 1057 308 1057 q 629 1010 522 1057 l 557 885 q 504 909 524 901 q 452 925 484 918 q 386 933 420 933 q 328 915 352 933 q 298 864 304 896 q 296 852 296 858 q 311 813 296 833 q 368 765 325 793 l 418 732 q 517 631 492 684 q 532 567 532 598 q 526 510 532 536 q 404 334 502 397 m 373 508 q 355 566 373 538 q 278 633 331 604 q 238 597 256 622 q 210 517 210 560 q 224 473 210 494 q 286 418 237 452 l 322 393 q 371 486 361 435 q 373 508 373 497 z "},"¨":{"ha":766,"x_min":155,"x_max":611,"o":"m 195 1016 q 266 1039 224 1039 q 327 1015 308 1039 q 340 974 340 998 q 338 951 340 963 q 300 889 330 912 q 229 865 271 865 q 168 888 187 865 q 155 921 155 903 q 195 1016 155 983 m 465 1016 q 536 1039 494 1039 q 597 1016 578 1039 q 611 975 611 1000 q 608 951 611 964 q 571 888 600 911 q 500 865 542 865 q 438 888 458 865 q 425 922 425 905 q 465 1016 425 983 z "},"©":{"ha":1145,"x_min":50,"x_max":1093,"o":"m 184 750 q 411 938 277 869 q 680 1006 545 1006 q 919 939 815 1006 q 1066 755 1022 873 q 1093 603 1093 683 q 1082 496 1093 551 q 959 240 1053 358 q 733 55 865 123 q 462 -14 602 -14 q 220 56 323 -14 q 75 244 117 126 q 50 376 50 312 q 184 750 50 579 m 979 705 q 859 858 944 802 q 662 914 774 914 q 440 858 550 914 q 254 705 330 801 q 154 496 178 609 q 144 398 144 451 q 165 286 144 345 q 286 134 201 190 q 484 78 370 78 q 706 134 597 78 q 890 286 814 190 q 990 496 966 382 q 1000 595 1000 542 q 979 705 1000 648 m 530 179 q 336 262 393 179 q 298 398 298 316 q 310 497 298 444 q 434 728 341 645 q 660 811 526 811 q 849 761 755 811 l 778 652 q 642 690 711 690 q 525 639 574 690 q 457 496 477 588 q 448 413 448 450 q 559 300 448 300 q 648 311 600 300 q 730 339 695 322 l 704 216 q 530 179 618 179 z "},"ª":{"ha":463,"x_min":13,"x_max":418,"o":"m 106 950 q 286 1003 203 1003 q 418 884 418 1003 q 412 825 418 858 l 347 522 l 268 522 l 264 593 q 119 514 202 514 q 30 551 56 514 q 13 605 13 574 q 87 772 13 721 q 239 814 140 808 l 296 817 q 300 851 300 836 q 244 903 300 903 q 125 864 198 903 l 106 950 m 133 644 q 170 611 133 611 q 235 638 207 611 q 274 714 264 666 l 279 741 l 230 736 q 166 715 189 732 q 135 664 142 698 q 133 644 133 653 z "},"«":{"ha":774,"x_min":48,"x_max":774,"o":"m 444 614 l 244 378 l 343 142 l 192 66 l 48 368 l 52 386 l 325 689 l 444 614 m 774 614 l 575 378 l 673 142 l 522 66 l 378 368 l 382 386 l 655 689 l 774 614 z "},"¬":{"ha":623,"x_min":83,"x_max":591,"o":"m 509 170 l 376 170 l 429 419 l 83 419 l 113 559 l 591 559 l 509 170 z "},"­":{"ha":439,"x_min":32,"x_max":407,"o":"m 373 293 l 32 293 l 66 452 l 407 452 l 373 293 z "},"®":{"ha":1145,"x_min":50,"x_max":1093,"o":"m 184 750 q 411 938 277 869 q 680 1006 545 1006 q 919 939 815 1006 q 1066 755 1022 873 q 1093 603 1093 683 q 1082 496 1093 551 q 959 240 1053 358 q 733 55 865 123 q 462 -14 602 -14 q 220 56 323 -14 q 75 244 117 126 q 50 376 50 312 q 184 750 50 579 m 979 705 q 859 858 944 802 q 662 914 774 914 q 440 858 550 914 q 254 705 330 801 q 154 496 178 609 q 144 398 144 451 q 165 286 144 345 q 286 134 201 190 q 484 78 370 78 q 706 134 597 78 q 890 286 814 190 q 990 496 966 382 q 1000 595 1000 542 q 979 705 1000 648 m 609 804 q 777 758 730 804 q 810 671 810 727 q 803 615 810 646 q 669 457 779 500 l 678 437 l 773 186 l 612 186 l 536 418 l 497 418 l 448 186 l 302 186 l 434 804 l 609 804 m 547 526 q 620 546 595 526 q 655 612 646 566 q 659 647 659 629 q 581 694 659 694 l 556 694 l 520 526 l 547 526 z "},"¯":{"ha":694,"x_min":-18,"x_max":712,"o":"m 685 1055 l -18 1055 l 9 1183 l 712 1183 l 685 1055 z "},"°":{"ha":564,"x_min":46,"x_max":518,"o":"m 52 775 q 154 938 72 870 q 330 1006 235 1006 q 479 938 425 1006 q 518 825 518 888 q 513 775 518 801 q 411 612 492 680 q 233 546 329 546 q 83 612 136 546 q 46 724 46 661 q 52 775 46 749 m 376 854 q 306 886 351 886 q 220 853 260 886 q 171 775 180 819 q 168 751 168 762 q 187 697 168 721 q 259 665 215 665 q 342 697 303 665 q 392 775 382 730 q 395 800 395 788 q 376 854 395 831 z "},"±":{"ha":623,"x_min":-14,"x_max":583,"o":"m 410 559 l 583 559 l 553 419 l 380 419 l 328 170 l 194 170 l 247 419 l 75 419 l 104 559 l 277 559 l 330 812 l 464 812 l 410 559 m 464 0 l -14 0 l 16 140 l 494 140 l 464 0 z "},"²":{"ha":467,"x_min":-28,"x_max":439,"o":"m 294 1006 q 414 960 376 1006 q 439 882 439 930 q 434 836 439 861 q 385 732 423 782 q 248 596 352 685 l 163 524 l 385 524 l 358 397 l -28 397 l -6 504 l 161 654 q 266 759 241 728 q 298 825 290 789 q 300 846 300 834 q 290 872 300 859 q 252 885 279 885 q 130 825 201 885 l 79 920 q 294 1006 184 1006 z "},"³":{"ha":467,"x_min":-15,"x_max":435,"o":"m 267 593 q 176 650 267 650 l 110 650 l 132 751 l 189 751 q 306 831 289 751 q 308 853 308 840 q 298 878 308 866 q 255 895 286 895 q 197 882 225 895 q 128 842 169 870 l 89 932 q 193 988 144 971 q 292 1004 241 1004 q 407 962 368 1004 q 435 886 435 931 q 431 848 435 868 q 302 713 410 747 l 300 705 q 378 654 356 692 q 392 604 392 628 q 389 564 392 581 q 307 433 371 480 q 140 386 243 386 q -15 424 37 386 l 10 543 q 156 494 73 494 q 264 574 247 494 q 267 593 267 584 z "},"´":{"ha":755,"x_min":187,"x_max":567,"o":"m 567 1064 l 564 1050 q 463 956 543 1023 q 314 842 383 890 l 187 842 l 191 860 q 276 961 227 897 q 351 1064 326 1025 l 567 1064 z "},"µ":{"ha":704,"x_min":-47,"x_max":745,"o":"m 269 -14 q 203 14 229 -14 q 170 -171 191 -77 l 136 -334 l -47 -334 l 185 755 l 368 755 l 267 281 q 258 212 258 238 q 263 171 258 186 q 319 139 276 139 q 417 197 378 139 q 486 393 456 254 l 563 755 l 745 755 l 585 0 l 440 0 l 438 97 l 427 97 q 269 -14 361 -14 z "},"¶":{"ha":734,"x_min":81,"x_max":774,"o":"m 237 367 q 96 452 130 367 q 81 554 81 492 q 100 707 81 617 q 211 969 137 883 q 401 1055 284 1055 l 774 1055 l 512 -176 l 408 -176 l 642 925 l 532 925 l 298 -176 l 194 -176 l 312 379 q 237 367 279 367 z "},"·":{"ha":375,"x_min":71,"x_max":304,"o":"m 121 573 q 139 587 121 573 q 211 602 156 602 q 289 572 266 602 q 304 524 304 553 q 300 490 304 509 q 253 408 289 437 q 163 379 217 379 q 87 408 109 379 q 71 457 71 428 q 75 490 71 473 q 121 573 87 544 z "},"¸":{"ha":282,"x_min":-50,"x_max":271,"o":"m 123 -170 q 31 -107 123 -123 l 107 0 l 224 0 l 189 -52 q 256 -96 234 -64 q 271 -147 271 -117 q 267 -176 271 -161 q 194 -292 252 -251 q 37 -334 136 -334 q -50 -319 -13 -334 l -27 -215 q 52 -227 14 -227 q 121 -182 113 -227 q 123 -170 123 -176 z "},"¹":{"ha":467,"x_min":75,"x_max":402,"o":"m 276 397 l 142 397 l 209 710 l 227 786 l 244 851 q 226 835 238 844 l 121 758 l 75 838 l 292 991 l 402 991 l 276 397 z "},"º":{"ha":465,"x_min":32,"x_max":433,"o":"m 130 939 q 284 1003 196 1003 q 410 937 372 1003 q 433 839 433 897 q 424 760 433 802 q 334 578 399 644 q 180 514 268 514 q 54 581 92 514 q 32 678 32 621 q 41 760 32 715 q 130 939 66 874 m 317 831 q 263 899 317 899 q 199 865 224 899 q 158 760 173 831 q 150 690 150 720 q 203 618 150 618 q 267 652 241 618 q 307 760 292 687 q 317 831 317 802 z "},"»":{"ha":774,"x_min":0,"x_max":726,"o":"m 395 386 l 391 368 l 118 66 l 0 142 l 199 378 l 100 614 l 251 689 l 395 386 m 726 386 l 722 368 l 449 66 l 330 142 l 529 378 l 431 614 l 582 689 l 726 386 z "},"¼":{"ha":1083,"x_min":82,"x_max":951,"o":"m 220 0 l 82 0 l 795 991 l 934 991 l 220 0 m 313 397 l 180 397 l 246 710 l 264 786 l 281 851 q 263 835 275 844 l 158 758 l 113 838 l 330 991 l 439 991 l 313 397 m 870 217 l 945 217 l 922 109 l 847 109 l 824 1 l 691 1 l 714 109 l 480 109 l 501 208 l 819 599 l 951 599 l 870 217 m 762 332 l 791 459 q 755 402 782 443 q 721 353 728 362 l 610 217 l 737 217 l 762 332 z "},"½":{"ha":1083,"x_min":82,"x_max":1006,"o":"m 220 0 l 82 0 l 795 991 l 934 991 l 220 0 m 313 397 l 180 397 l 246 710 l 264 786 l 281 851 q 263 835 275 844 l 158 758 l 113 838 l 330 991 l 439 991 l 313 397 m 860 609 q 980 564 943 609 q 1006 486 1006 533 q 952 335 1006 408 q 814 199 918 288 l 730 127 l 951 127 l 924 1 l 538 1 l 560 107 l 727 258 q 832 362 808 331 q 865 429 857 393 q 867 450 867 438 q 856 475 867 463 q 819 488 846 488 q 696 429 768 488 l 646 523 q 860 609 751 609 z "},"¾":{"ha":1083,"x_min":28,"x_max":956,"o":"m 310 593 q 220 650 310 650 l 153 650 l 175 751 l 232 751 q 349 831 332 751 q 351 853 351 840 q 342 878 351 866 q 299 895 330 895 q 241 882 269 895 q 172 842 213 870 l 133 932 q 336 1004 235 1004 q 450 962 412 1004 q 479 884 479 931 q 475 848 479 867 q 346 713 453 747 l 345 705 q 422 654 400 692 q 435 605 435 628 q 432 564 435 581 q 351 433 414 480 q 184 386 287 386 q 28 424 82 386 l 54 543 q 200 494 117 494 q 308 574 292 494 q 310 593 310 584 m 242 0 l 104 0 l 818 991 l 956 991 l 242 0 m 873 217 l 948 217 l 925 109 l 850 109 l 827 1 l 694 1 l 717 109 l 483 109 l 504 208 l 822 599 l 954 599 l 873 217 m 764 332 l 794 459 q 758 402 785 443 q 724 353 731 362 l 613 217 l 740 217 l 764 332 z "},"¿":{"ha":530,"x_min":-31,"x_max":503,"o":"m 275 647 q 321 729 286 700 q 410 758 357 758 q 487 729 463 758 q 503 678 503 709 q 499 647 503 664 q 452 565 488 593 q 363 536 417 536 q 286 566 309 536 q 271 614 271 585 q 275 647 271 629 m 156 -11 q 153 -47 153 -28 q 163 -83 153 -66 q 220 -110 178 -110 q 385 -57 294 -110 l 420 -193 q 170 -265 299 -265 q 5 -203 56 -265 q -31 -96 -31 -161 q -23 -31 -31 -65 q 52 134 -1 68 q 140 223 79 170 q 221 306 202 277 q 251 379 241 334 l 260 421 l 419 421 l 408 372 q 365 261 395 309 q 271 155 335 212 q 186 67 207 98 q 156 -11 166 36 z "},"À":{"ha":742,"x_min":-138,"x_max":604,"o":"m 269 1293 l 484 1293 q 515 1190 493 1255 q 557 1089 538 1125 l 553 1071 l 427 1071 q 330 1180 384 1112 q 265 1279 277 1248 l 269 1293 m 604 0 l 419 0 l 416 250 l 157 250 l 47 0 l -138 0 l 319 996 l 570 996 l 604 0 m 412 644 l 412 749 q 417 863 414 838 q 373 747 396 806 q 229 414 349 688 l 416 414 l 412 644 z "},"Á":{"ha":742,"x_min":-138,"x_max":745,"o":"m 745 1293 l 741 1279 q 641 1185 721 1252 q 492 1071 567 1124 l 365 1071 l 369 1089 q 454 1190 404 1126 q 529 1293 504 1255 l 745 1293 m 604 0 l 419 0 l 416 250 l 157 250 l 47 0 l -138 0 l 319 996 l 570 996 l 604 0 m 412 644 l 412 749 q 417 863 414 838 q 373 747 396 806 q 229 414 349 688 l 416 414 l 412 644 z "},"Â":{"ha":742,"x_min":-138,"x_max":707,"o":"m 415 1293 l 603 1293 q 707 1089 620 1239 l 703 1071 l 589 1071 q 486 1192 534 1120 q 334 1071 414 1126 l 220 1071 l 224 1089 q 415 1293 378 1243 m 604 0 l 419 0 l 416 250 l 157 250 l 47 0 l -138 0 l 319 996 l 570 996 l 604 0 m 412 644 l 412 749 q 417 863 414 838 q 373 747 396 806 q 229 414 349 688 l 416 414 l 412 644 z "},"Ã":{"ha":742,"x_min":-136,"x_max":749,"o":"m 557 1071 q 481 1096 515 1071 q 455 1118 468 1107 q 401 1143 425 1143 q 361 1127 377 1143 q 330 1069 345 1110 l 234 1069 q 313 1223 264 1172 q 426 1274 361 1274 q 476 1262 452 1274 q 515 1238 500 1251 q 586 1202 554 1202 q 622 1218 608 1202 q 653 1275 636 1235 l 749 1275 q 670 1122 720 1174 q 557 1071 620 1071 m 606 0 l 421 0 l 418 250 l 159 250 l 49 0 l -136 0 l 321 996 l 572 996 l 606 0 m 418 414 l 414 644 q 419 863 414 814 q 365 723 378 757 q 231 414 351 688 l 418 414 z "},"Ä":{"ha":742,"x_min":-135,"x_max":715,"o":"m 300 1245 q 371 1268 329 1268 q 432 1244 413 1268 q 445 1211 445 1227 q 405 1118 445 1150 q 334 1095 376 1095 q 273 1118 292 1095 q 260 1150 260 1133 q 300 1245 260 1212 m 532 1181 q 570 1245 541 1221 q 641 1268 599 1268 q 703 1245 683 1268 q 715 1211 715 1229 q 675 1118 715 1149 q 604 1095 646 1095 q 543 1118 562 1095 q 530 1158 530 1135 q 532 1181 530 1169 m 607 0 l 422 0 l 418 250 l 160 250 l 50 0 l -135 0 l 322 996 l 572 996 l 607 0 m 418 414 l 414 644 q 420 863 414 814 q 375 747 399 806 q 231 414 352 688 l 418 414 z "},"Å":{"ha":742,"x_min":-130,"x_max":640,"o":"m 312 961 q 296 1014 296 987 q 301 1064 296 1042 q 371 1180 317 1138 q 500 1222 426 1222 q 612 1179 574 1222 q 640 1102 640 1147 q 636 1065 640 1084 q 579 961 623 1002 l 612 0 l 427 0 l 423 250 l 165 250 l 54 0 l -130 0 l 312 961 m 429 1114 q 397 1040 397 1087 q 406 1013 397 1025 q 451 996 419 996 q 505 1014 482 996 q 534 1064 528 1033 q 536 1087 536 1074 q 524 1116 536 1100 q 481 1132 511 1132 q 429 1114 452 1132 m 419 644 l 420 749 q 425 863 422 838 q 380 747 404 806 q 236 414 357 688 l 423 414 l 419 644 z "},"Æ":{"ha":966,"x_min":-105,"x_max":1013,"o":"m 979 832 l 720 832 l 669 596 l 910 596 l 876 436 l 635 436 l 577 161 l 837 161 l 803 0 l 359 0 l 412 250 l 209 250 l 79 0 l -105 0 l 426 991 l 1013 991 l 979 832 m 509 832 l 492 799 l 295 414 l 446 414 l 535 832 l 509 832 z "},"Ç":{"ha":643,"x_min":67,"x_max":746,"o":"m 524 844 q 380 752 446 844 q 279 493 315 660 q 258 322 258 393 q 385 149 258 149 q 561 199 464 149 l 526 35 q 346 -14 451 -9 l 319 -52 q 387 -96 365 -64 q 401 -138 401 -117 q 397 -176 401 -160 q 324 -292 382 -251 q 167 -334 266 -334 q 81 -319 118 -334 l 103 -215 q 183 -227 144 -227 q 252 -182 242 -227 q 254 -170 254 -176 q 161 -107 254 -123 l 237 -1 q 100 119 143 27 q 67 288 67 192 q 91 494 67 384 q 263 871 142 736 q 549 1006 384 1006 q 651 990 605 1006 q 746 939 698 975 l 653 789 q 591 829 621 814 q 524 844 561 844 z "},"È":{"ha":591,"x_min":-50,"x_max":608,"o":"m 198 1293 l 414 1293 q 445 1190 422 1255 q 487 1089 467 1125 l 483 1071 l 356 1071 q 260 1180 313 1112 q 195 1279 206 1248 l 198 1293 m 574 832 l 311 832 l 261 596 l 505 596 l 471 436 l 227 436 l 169 161 l 431 161 l 397 0 l -50 0 l 161 991 l 608 991 l 574 832 z "},"É":{"ha":591,"x_min":-50,"x_max":698,"o":"m 698 1293 l 694 1279 q 594 1185 674 1252 q 445 1071 520 1124 l 318 1071 l 322 1089 q 407 1190 357 1126 q 482 1293 457 1255 l 698 1293 m 574 832 l 311 832 l 261 596 l 505 596 l 471 436 l 227 436 l 169 161 l 431 161 l 397 0 l -50 0 l 161 991 l 608 991 l 574 832 z "},"Ê":{"ha":591,"x_min":-50,"x_max":646,"o":"m 355 1293 l 543 1293 q 646 1089 559 1239 l 642 1071 l 528 1071 q 426 1192 473 1120 q 274 1071 354 1126 l 160 1071 l 164 1089 q 355 1293 318 1243 m 574 832 l 311 832 l 261 596 l 505 596 l 471 436 l 227 436 l 169 161 l 431 161 l 397 0 l -50 0 l 161 991 l 608 991 l 574 832 z "},"Ë":{"ha":591,"x_min":-47,"x_max":657,"o":"m 242 1245 q 313 1268 271 1268 q 374 1244 355 1268 q 387 1211 387 1227 q 347 1118 387 1150 q 275 1095 317 1095 q 214 1118 233 1095 q 201 1150 201 1133 q 242 1245 201 1212 m 474 1181 q 512 1245 483 1221 q 583 1268 541 1268 q 644 1245 625 1268 q 657 1211 657 1229 q 617 1118 657 1149 q 546 1095 588 1095 q 485 1118 504 1095 q 471 1158 471 1135 q 474 1181 471 1169 m 576 832 l 314 832 l 264 596 l 507 596 l 473 436 l 230 436 l 172 161 l 434 161 l 399 0 l -47 0 l 163 991 l 610 991 l 576 832 z "},"Ì":{"ha":416,"x_min":-17,"x_max":393,"o":"m 104 1293 l 319 1293 q 351 1190 328 1255 q 393 1089 373 1125 l 389 1071 l 262 1071 q 165 1180 219 1112 q 100 1279 111 1248 l 104 1293 m 157 0 l -17 0 l 194 991 l 368 991 l 157 0 z "},"Í":{"ha":416,"x_min":-17,"x_max":583,"o":"m 583 1293 l 580 1279 q 479 1185 559 1252 q 330 1071 406 1124 l 203 1071 l 208 1089 q 293 1190 243 1126 q 368 1293 342 1255 l 583 1293 m 157 0 l -17 0 l 194 991 l 368 991 l 157 0 z "},"Î":{"ha":416,"x_min":-17,"x_max":544,"o":"m 252 1293 l 440 1293 q 544 1089 457 1239 l 540 1071 l 426 1071 q 323 1192 371 1120 q 172 1071 252 1126 l 58 1071 l 62 1089 q 252 1293 216 1243 m 157 0 l -17 0 l 194 991 l 368 991 l 157 0 z "},"Ï":{"ha":416,"x_min":-14,"x_max":553,"o":"m 138 1245 q 208 1268 166 1268 q 269 1244 250 1268 q 282 1211 282 1227 q 242 1118 282 1150 q 171 1095 213 1095 q 110 1118 129 1095 q 97 1150 97 1133 q 138 1245 97 1212 m 370 1181 q 407 1245 378 1221 q 478 1268 436 1268 q 540 1245 520 1268 q 553 1211 553 1229 q 513 1118 553 1149 q 441 1095 484 1095 q 380 1118 399 1095 q 367 1158 367 1135 q 370 1181 367 1169 m 159 0 l -14 0 l 197 991 l 370 991 l 159 0 z "},"Ð":{"ha":775,"x_min":-18,"x_max":741,"o":"m 458 991 q 700 863 631 991 q 741 679 741 789 q 720 505 741 602 q 541 130 669 260 q 225 0 412 0 l -18 0 l 69 410 l -18 410 l 16 571 l 104 571 l 193 991 l 458 991 m 260 161 q 427 245 361 161 q 530 500 493 330 q 549 659 549 593 q 417 832 549 832 l 343 832 l 288 571 l 412 571 l 378 410 l 254 410 l 201 161 l 260 161 z "},"Ñ":{"ha":869,"x_min":-48,"x_max":857,"o":"m 620 1071 q 545 1096 578 1071 q 518 1118 531 1107 q 464 1143 488 1143 q 424 1127 440 1143 q 393 1069 408 1110 l 297 1069 q 376 1223 327 1172 q 489 1274 425 1274 q 539 1262 515 1274 q 578 1238 563 1251 q 649 1202 617 1202 q 685 1218 671 1202 q 716 1275 699 1235 l 812 1275 q 733 1122 783 1174 q 620 1071 683 1071 m 258 718 q 238 542 258 636 l 123 0 l -48 0 l 163 991 l 389 991 l 542 281 l 549 281 q 572 450 551 348 l 688 991 l 857 991 l 646 0 l 421 0 l 267 718 l 258 718 z "},"Ò":{"ha":827,"x_min":3,"x_max":763,"o":"m 304 1293 l 520 1293 q 551 1190 529 1255 q 593 1089 574 1125 l 589 1071 l 463 1071 q 364 1182 416 1116 q 301 1279 312 1248 l 304 1293 m 27 498 q 199 876 79 745 q 492 1007 319 1007 q 728 875 665 1007 q 763 705 763 802 q 739 497 763 608 q 567 119 688 252 q 275 -14 446 -14 q 38 118 103 -14 q 3 288 3 190 q 27 498 3 386 m 193 322 q 309 150 193 150 q 550 497 477 150 q 573 679 573 605 q 458 844 573 844 q 313 756 374 844 q 215 497 251 668 q 193 322 193 395 z "},"Ó":{"ha":827,"x_min":3,"x_max":795,"o":"m 795 1293 l 791 1279 q 691 1185 771 1252 q 542 1071 617 1124 l 415 1071 l 419 1089 q 504 1190 454 1126 q 579 1293 554 1255 l 795 1293 m 27 498 q 199 876 79 745 q 492 1007 319 1007 q 728 875 665 1007 q 763 705 763 802 q 739 497 763 608 q 567 119 688 252 q 275 -14 446 -14 q 38 118 103 -14 q 3 288 3 190 q 27 498 3 386 m 193 322 q 309 150 193 150 q 550 497 477 150 q 573 679 573 605 q 458 844 573 844 q 313 756 374 844 q 215 497 251 668 q 193 322 193 395 z "},"Ô":{"ha":827,"x_min":3,"x_max":763,"o":"m 457 1293 l 645 1293 q 749 1089 662 1239 l 745 1071 l 631 1071 q 528 1192 576 1120 q 376 1071 456 1126 l 262 1071 l 267 1089 q 457 1293 420 1243 m 27 498 q 199 876 79 745 q 492 1007 319 1007 q 728 875 665 1007 q 763 705 763 802 q 739 497 763 608 q 567 119 688 252 q 275 -14 446 -14 q 38 118 103 -14 q 3 288 3 190 q 27 498 3 386 m 193 322 q 309 150 193 150 q 550 497 477 150 q 573 679 573 605 q 458 844 573 844 q 313 756 374 844 q 215 497 251 668 q 193 322 193 395 z "},"Õ":{"ha":827,"x_min":5,"x_max":792,"o":"m 600 1071 q 525 1096 559 1071 q 498 1118 511 1107 q 444 1143 468 1143 q 405 1127 420 1143 q 374 1069 389 1110 l 278 1069 q 356 1222 307 1171 q 470 1274 406 1274 q 520 1262 496 1274 q 559 1238 544 1251 q 629 1202 597 1202 q 665 1218 651 1202 q 696 1275 680 1235 l 792 1275 q 713 1122 763 1174 q 600 1071 663 1071 m 29 498 q 201 876 81 745 q 494 1007 321 1007 q 730 875 667 1007 q 765 705 765 802 q 741 497 765 608 q 569 119 690 252 q 276 -14 448 -14 q 40 118 105 -14 q 5 288 5 190 q 29 498 5 386 m 195 322 q 311 150 195 150 q 552 497 479 150 q 575 679 575 605 q 460 844 575 844 q 315 756 376 844 q 217 497 253 668 q 195 322 195 395 z "},"Ö":{"ha":827,"x_min":6,"x_max":766,"o":"m 342 1245 q 413 1268 371 1268 q 474 1244 455 1268 q 487 1211 487 1227 q 447 1118 487 1150 q 376 1095 418 1095 q 315 1118 334 1095 q 302 1150 302 1133 q 342 1245 302 1212 m 574 1181 q 612 1245 583 1221 q 683 1268 641 1268 q 745 1245 725 1268 q 758 1211 758 1229 q 718 1118 758 1149 q 646 1095 688 1095 q 585 1118 604 1095 q 572 1158 572 1135 q 574 1181 572 1169 m 30 498 q 202 876 82 745 q 495 1007 322 1007 q 731 875 667 1007 q 766 705 766 802 q 742 497 766 608 q 570 119 690 252 q 277 -14 448 -14 q 41 118 106 -14 q 6 288 6 190 q 30 498 6 386 m 195 322 q 312 150 195 150 q 553 497 479 150 q 576 679 576 605 q 461 844 576 844 q 315 756 377 844 q 218 497 254 668 q 195 322 195 395 z "},"×":{"ha":623,"x_min":15,"x_max":606,"o":"m 606 714 l 393 490 l 511 264 l 392 187 l 288 383 l 102 187 l 15 264 l 230 490 l 111 714 l 229 790 l 334 599 l 519 790 l 606 714 z "},"Ø":{"ha":827,"x_min":-18,"x_max":856,"o":"m 760 872 q 793 704 793 800 q 770 497 793 608 q 598 119 719 251 q 306 -14 477 -14 q 151 25 214 -14 l 83 -69 l -18 -17 l 74 110 q 57 493 3 240 q 231 876 111 745 q 524 1007 351 1007 q 685 961 616 1007 l 755 1057 l 856 1006 l 760 872 m 490 844 q 344 756 406 844 q 246 497 282 668 q 222 317 224 391 l 578 811 q 490 844 550 844 m 340 150 q 581 497 507 150 q 607 657 603 602 l 258 176 q 340 150 286 150 z "},"Ù":{"ha":781,"x_min":7,"x_max":772,"o":"m 281 1293 l 497 1293 q 528 1190 506 1255 q 570 1089 551 1125 l 566 1071 l 439 1071 q 341 1182 393 1116 q 278 1279 289 1248 l 281 1293 m 635 350 q 498 80 598 173 q 248 -14 398 -14 q 41 79 98 -14 q 7 222 7 135 q 22 353 7 280 l 158 991 l 341 991 l 203 339 q 193 258 193 293 q 288 150 193 150 q 388 198 346 150 q 449 335 430 246 l 589 991 l 772 991 l 635 350 z "},"Ú":{"ha":781,"x_min":7,"x_max":772,"o":"m 772 1293 l 769 1279 q 669 1185 749 1252 q 519 1071 595 1124 l 393 1071 l 397 1089 q 482 1190 432 1126 q 557 1293 532 1255 l 772 1293 m 635 350 q 498 80 598 173 q 248 -14 398 -14 q 41 79 98 -14 q 7 222 7 135 q 22 353 7 280 l 158 991 l 341 991 l 203 339 q 193 258 193 293 q 288 150 193 150 q 388 198 346 150 q 449 335 430 246 l 589 991 l 772 991 l 635 350 z "},"Û":{"ha":781,"x_min":7,"x_max":772,"o":"m 435 1293 l 623 1293 q 726 1089 640 1239 l 722 1071 l 608 1071 q 506 1192 553 1120 q 354 1071 434 1126 l 240 1071 l 244 1089 q 435 1293 398 1243 m 635 350 q 498 80 598 173 q 248 -14 398 -14 q 41 79 98 -14 q 7 222 7 135 q 22 353 7 280 l 158 991 l 341 991 l 203 339 q 193 258 193 293 q 288 150 193 150 q 388 198 346 150 q 449 335 430 246 l 589 991 l 772 991 l 635 350 z "},"Ü":{"ha":781,"x_min":9,"x_max":774,"o":"m 320 1245 q 391 1268 349 1268 q 452 1244 433 1268 q 465 1211 465 1227 q 425 1118 465 1150 q 353 1095 395 1095 q 292 1118 311 1095 q 279 1150 279 1133 q 320 1245 279 1212 m 552 1181 q 590 1245 561 1221 q 661 1268 618 1268 q 722 1245 703 1268 q 735 1211 735 1229 q 695 1118 735 1149 q 624 1095 666 1095 q 563 1118 582 1095 q 549 1158 549 1135 q 552 1181 549 1169 m 638 350 q 501 80 601 173 q 251 -14 401 -14 q 43 79 101 -14 q 9 222 9 135 q 25 353 9 280 l 161 991 l 344 991 l 205 339 q 195 258 195 293 q 290 150 195 150 q 391 198 349 150 q 452 335 433 246 l 591 991 l 774 991 l 638 350 z "},"Ý":{"ha":652,"x_min":73,"x_max":725,"o":"m 705 1293 l 701 1279 q 601 1185 681 1252 q 452 1071 527 1124 l 325 1071 l 329 1089 q 414 1190 364 1126 q 489 1293 464 1255 l 705 1293 m 363 397 l 279 0 l 97 0 l 180 390 l 73 991 l 268 991 l 316 600 l 532 991 l 725 991 l 363 397 z "},"Þ":{"ha":665,"x_min":-18,"x_max":647,"o":"m 410 833 q 647 629 647 833 q 635 528 647 584 q 503 284 601 369 q 255 200 406 200 l 209 200 l 167 0 l -18 0 l 193 991 l 377 991 l 344 833 l 410 833 m 278 359 q 388 398 347 359 q 447 521 429 437 q 454 578 454 553 q 356 675 454 675 l 310 675 l 243 359 l 278 359 z "},"ß":{"ha":751,"x_min":-35,"x_max":727,"o":"m 131 781 q 252 990 160 917 q 480 1063 343 1063 q 680 1005 618 1063 q 727 895 727 962 q 721 844 727 871 q 611 666 700 743 l 569 630 q 517 567 522 589 q 516 548 516 560 q 527 517 516 536 q 593 445 538 498 q 661 343 648 391 q 667 293 667 321 q 659 229 667 264 q 554 51 635 115 q 348 -14 472 -14 q 199 22 254 -14 l 231 175 q 363 127 292 127 q 472 215 454 127 q 475 245 475 229 q 467 279 475 262 q 406 354 454 308 q 337 441 354 399 q 327 493 327 467 q 366 618 327 564 q 436 690 390 653 q 503 755 481 728 q 529 806 524 783 q 534 841 534 829 q 519 887 534 869 q 450 913 499 913 q 311 775 339 913 l 146 0 l -35 0 l 131 781 z "},"à":{"ha":648,"x_min":-37,"x_max":585,"o":"m 214 1064 l 429 1064 q 460 961 438 1026 q 503 860 483 896 l 498 842 l 372 842 q 273 952 326 886 q 210 1050 221 1019 l 214 1064 m 126 700 q 380 771 254 771 q 553 703 505 771 q 585 591 585 659 q 575 507 585 553 l 467 0 l 335 0 l 321 103 l 317 103 q 216 12 264 37 q 102 -14 168 -14 q -16 49 18 -14 q -37 131 -37 85 q -27 222 -37 177 q 75 399 -2 340 q 286 464 153 458 l 387 468 l 398 522 q 402 559 402 543 q 329 628 402 628 q 162 575 262 628 l 126 700 m 155 182 q 205 127 155 127 q 294 172 255 127 q 349 290 334 216 l 362 354 l 306 351 q 209 316 244 348 q 159 221 173 284 q 155 182 155 199 z "},"á":{"ha":648,"x_min":-37,"x_max":692,"o":"m 692 1064 l 689 1050 q 589 956 669 1023 q 439 842 509 890 l 313 842 l 317 860 q 402 961 352 897 q 477 1064 452 1025 l 692 1064 m 126 700 q 380 771 254 771 q 553 703 505 771 q 585 591 585 659 q 575 507 585 553 l 467 0 l 335 0 l 321 103 l 317 103 q 216 12 264 37 q 102 -14 168 -14 q -16 49 18 -14 q -37 131 -37 85 q -27 222 -37 177 q 75 399 -2 340 q 286 464 153 458 l 387 468 l 398 522 q 402 559 402 543 q 329 628 402 628 q 162 575 262 628 l 126 700 m 155 182 q 205 127 155 127 q 294 172 255 127 q 349 290 334 216 l 362 354 l 306 351 q 209 316 244 348 q 159 221 173 284 q 155 182 155 199 z "},"â":{"ha":648,"x_min":-37,"x_max":648,"o":"m 357 1063 l 545 1063 q 648 859 562 1009 l 644 841 l 530 841 q 428 962 475 890 q 276 841 356 896 l 162 841 l 166 859 q 357 1063 320 1013 m 126 700 q 380 771 254 771 q 553 703 505 771 q 585 591 585 659 q 575 507 585 553 l 467 0 l 335 0 l 321 103 l 317 103 q 216 12 264 37 q 102 -14 168 -14 q -16 49 18 -14 q -37 131 -37 85 q -27 222 -37 177 q 75 399 -2 340 q 286 464 153 458 l 387 468 l 398 522 q 402 559 402 543 q 329 628 402 628 q 162 575 262 628 l 126 700 m 155 182 q 205 127 155 127 q 294 172 255 127 q 349 290 334 216 l 362 354 l 307 351 q 209 316 244 348 q 159 221 173 284 q 155 182 155 199 z "},"ã":{"ha":648,"x_min":-35,"x_max":692,"o":"m 500 842 q 426 867 459 842 q 399 888 412 878 q 345 914 368 914 q 305 898 321 914 q 274 840 289 881 l 178 840 q 257 993 208 942 q 370 1044 306 1044 q 420 1033 397 1044 q 458 1008 444 1022 q 530 972 497 972 q 566 989 551 972 q 597 1046 580 1006 l 692 1046 q 613 893 663 945 q 500 842 564 842 m 388 771 q 556 703 507 771 q 587 591 587 659 q 577 507 587 553 l 469 0 l 337 0 l 323 103 l 319 103 q 218 12 266 37 q 104 -14 170 -14 q -14 49 20 -14 q -35 131 -35 85 q -25 222 -35 177 q 77 399 0 340 q 288 464 155 458 l 389 468 l 400 522 q 404 559 404 543 q 331 628 404 628 q 163 575 264 628 l 128 700 q 388 771 255 771 m 157 182 q 207 127 157 127 q 296 172 257 127 q 351 290 335 216 l 364 354 l 308 351 q 211 316 246 348 q 161 221 175 284 q 157 182 157 199 z "},"ä":{"ha":648,"x_min":-34,"x_max":658,"o":"m 242 1016 q 313 1039 271 1039 q 374 1015 355 1039 q 387 974 387 998 q 385 951 387 963 q 347 889 376 912 q 276 865 317 865 q 215 888 234 865 q 202 921 202 903 q 242 1016 202 983 m 512 1016 q 583 1039 541 1039 q 644 1016 625 1039 q 658 975 658 1000 q 655 951 658 964 q 617 888 646 911 q 547 865 589 865 q 486 888 505 865 q 472 922 472 905 q 512 1016 472 983 m 129 700 q 382 771 257 771 q 556 703 508 771 q 587 591 587 659 q 578 507 587 553 l 470 0 l 338 0 l 324 103 l 320 103 q 218 12 267 37 q 104 -14 170 -14 q -14 49 21 -14 q -34 131 -34 85 q -24 222 -34 177 q 78 399 1 340 q 288 464 155 458 l 389 468 l 401 522 q 405 559 405 543 q 332 628 405 628 q 165 575 264 628 l 129 700 m 157 182 q 208 127 157 127 q 297 172 258 127 q 351 290 336 216 l 365 354 l 309 351 q 211 316 247 348 q 162 221 176 284 q 157 182 157 199 z "},"å":{"ha":648,"x_min":-47,"x_max":599,"o":"m 330 1115 q 357 1136 330 1115 q 458 1157 385 1157 q 571 1114 532 1157 q 599 1037 599 1082 q 595 1000 599 1019 q 523 884 579 927 q 393 840 467 840 q 280 882 318 840 q 255 956 255 912 q 260 999 255 976 q 330 1115 275 1073 m 463 949 q 495 1022 495 975 q 482 1051 495 1035 q 440 1067 469 1067 q 387 1048 410 1067 q 355 977 355 1022 q 410 930 355 930 q 463 949 440 930 m 116 700 q 370 771 244 771 q 544 703 495 771 q 575 591 575 659 q 566 507 575 553 l 458 0 l 326 0 l 311 103 l 307 103 q 205 12 253 37 q 92 -14 157 -14 q -26 49 8 -14 q -47 131 -47 85 q -37 222 -47 176 q 65 399 -12 340 q 275 464 142 458 l 376 468 l 388 522 q 393 560 393 543 q 322 628 393 628 q 152 575 252 628 l 116 700 m 145 184 q 195 127 145 127 q 284 172 245 127 q 339 290 323 216 l 353 354 l 296 351 q 198 316 234 348 q 149 221 163 284 q 145 184 145 200 z "},"æ":{"ha":981,"x_min":-5,"x_max":961,"o":"m 417 771 q 578 708 529 771 q 755 770 659 770 q 930 679 880 770 q 961 545 961 624 q 947 428 961 492 l 927 332 l 565 332 q 557 252 557 292 q 574 182 557 212 q 673 132 602 132 q 865 187 764 132 l 833 39 q 614 -14 736 -14 q 406 109 457 -14 q 297 16 354 45 q 168 -14 239 -14 q 22 46 64 -14 q -5 145 -5 84 q 4 222 -5 180 q 106 399 29 340 q 317 464 184 458 l 418 468 l 429 521 q 433 559 433 542 q 360 628 433 628 q 193 575 293 628 l 157 700 q 417 771 286 771 m 788 538 q 726 631 788 631 q 597 463 641 631 l 780 463 q 788 538 788 506 m 186 182 q 236 127 186 127 q 325 172 286 127 q 380 290 364 216 l 393 354 l 337 351 q 240 316 275 348 q 191 221 204 284 q 186 182 186 199 z "},"ç":{"ha":515,"x_min":36,"x_max":602,"o":"m 192 -1 q 65 220 65 41 q 83 374 65 288 q 214 672 125 574 q 441 770 302 770 q 527 757 484 770 q 602 722 570 745 l 520 582 q 427 615 472 615 q 332 556 370 615 q 268 375 294 497 q 251 247 251 298 q 326 142 251 142 q 477 189 393 142 l 444 31 q 301 -13 375 -7 l 274 -52 q 341 -96 319 -64 q 355 -138 355 -117 q 352 -176 355 -160 q 278 -292 336 -251 q 121 -334 220 -334 q 36 -319 73 -334 l 58 -215 q 138 -227 98 -227 q 207 -182 197 -227 q 208 -170 208 -176 q 116 -107 208 -123 l 192 -1 z "},"è":{"ha":639,"x_min":3,"x_max":589,"o":"m 212 1064 l 428 1064 q 459 961 437 1026 q 501 860 481 896 l 497 842 l 370 842 q 272 952 324 886 q 209 1050 220 1019 l 212 1064 m 241 -14 q 39 87 100 -14 q 3 240 3 148 q 18 372 3 300 q 154 665 58 560 q 378 770 251 770 q 557 680 506 770 q 589 546 589 626 q 575 428 589 493 l 555 332 l 192 332 q 184 252 184 292 q 201 182 184 212 q 300 132 229 132 q 492 187 388 132 l 460 39 q 241 -14 363 -14 m 414 538 q 351 631 414 631 q 278 588 311 631 q 222 463 244 546 l 406 463 q 414 538 414 506 z "},"é":{"ha":639,"x_min":3,"x_max":683,"o":"m 683 1064 l 680 1050 q 579 956 659 1023 q 430 842 499 890 l 303 842 l 307 860 q 392 961 342 897 q 467 1064 442 1025 l 683 1064 m 241 -14 q 39 87 100 -14 q 3 240 3 148 q 18 372 3 300 q 154 665 58 560 q 378 770 251 770 q 557 680 506 770 q 589 546 589 626 q 575 428 589 493 l 555 332 l 192 332 q 184 252 184 292 q 201 182 184 212 q 300 132 229 132 q 492 187 388 132 l 460 39 q 241 -14 363 -14 m 414 538 q 351 631 414 631 q 278 588 311 631 q 222 463 244 546 l 406 463 q 414 538 414 506 z "},"ê":{"ha":639,"x_min":3,"x_max":643,"o":"m 351 1064 l 539 1064 q 643 860 558 1006 l 639 842 l 525 842 q 422 962 470 890 q 271 842 351 897 l 157 842 l 161 860 q 351 1064 312 1010 m 241 -14 q 39 87 100 -14 q 3 240 3 148 q 18 372 3 300 q 154 665 58 560 q 378 770 251 770 q 557 680 506 770 q 589 546 589 626 q 575 428 589 493 l 555 332 l 192 332 q 184 252 184 292 q 201 182 184 212 q 300 132 229 132 q 492 187 388 132 l 460 39 q 241 -14 363 -14 m 414 538 q 351 631 414 631 q 278 588 311 631 q 222 463 244 546 l 406 463 q 414 538 414 506 z "},"ë":{"ha":639,"x_min":5,"x_max":652,"o":"m 237 1016 q 307 1039 265 1039 q 368 1015 349 1039 q 382 974 382 998 q 379 951 382 963 q 341 889 370 912 q 270 865 312 865 q 210 888 229 865 q 197 921 197 903 q 237 1016 197 983 m 507 1016 q 577 1039 535 1039 q 639 1016 619 1039 q 652 975 652 1000 q 650 951 652 964 q 612 888 641 911 q 541 865 583 865 q 480 888 499 865 q 467 922 467 905 q 507 1016 467 983 m 243 -14 q 41 87 101 -14 q 5 240 5 148 q 20 372 5 300 q 157 665 60 560 q 381 770 254 770 q 560 680 509 770 q 591 546 591 626 q 578 428 591 493 l 557 332 l 195 332 q 187 252 187 292 q 203 182 187 212 q 302 132 232 132 q 494 187 389 132 l 463 39 q 243 -14 366 -14 m 416 538 q 354 631 416 631 q 280 588 314 631 q 225 463 247 546 l 408 463 q 416 538 416 506 z "},"ì":{"ha":336,"x_min":-35,"x_max":328,"o":"m 39 1064 l 254 1064 q 286 961 263 1026 q 328 860 308 896 l 323 842 l 197 842 q 98 952 151 886 q 35 1050 46 1019 l 39 1064 m 145 0 l -35 0 l 125 755 l 306 755 l 145 0 z "},"í":{"ha":336,"x_min":-35,"x_max":522,"o":"m 522 1064 l 519 1050 q 418 956 498 1023 q 269 842 345 895 l 142 842 l 146 860 q 232 961 182 897 q 307 1064 281 1025 l 522 1064 m 145 0 l -35 0 l 125 755 l 306 755 l 145 0 z "},"î":{"ha":336,"x_min":-35,"x_max":477,"o":"m 186 1064 l 374 1064 q 477 860 391 1010 l 473 842 l 359 842 q 257 962 304 890 q 105 842 185 897 l -9 842 l -5 860 q 186 1064 149 1014 m 145 0 l -35 0 l 125 755 l 306 755 l 145 0 z "},"ï":{"ha":336,"x_min":-33,"x_max":487,"o":"m 72 1016 q 142 1039 100 1039 q 203 1015 184 1039 q 216 981 216 998 q 176 888 216 921 q 105 865 147 865 q 44 888 63 865 q 31 921 31 903 q 72 1016 31 983 m 304 951 q 341 1016 313 992 q 412 1039 370 1039 q 473 1016 454 1039 q 487 982 487 1000 q 447 888 487 920 q 376 865 418 865 q 315 888 334 865 q 301 929 301 905 q 304 951 301 940 m 148 0 l -33 0 l 128 755 l 309 755 l 148 0 z "},"ð":{"ha":686,"x_min":-4,"x_max":667,"o":"m 629 581 q 606 386 629 491 q 466 93 566 198 q 229 -14 366 -14 q 33 78 91 -14 q -4 222 -4 137 q 8 328 -4 271 q 130 582 43 492 q 342 672 217 672 q 465 593 425 672 l 473 595 q 395 810 467 714 l 225 711 l 181 810 l 330 893 q 239 958 300 920 l 326 1065 q 463 968 416 1013 l 624 1063 l 667 965 l 536 890 q 629 581 629 766 m 347 529 q 251 480 288 529 q 193 328 214 431 q 182 246 182 281 q 262 140 182 140 q 356 194 319 140 q 416 359 393 248 q 425 428 425 397 q 414 484 425 460 q 347 529 395 529 z "},"ñ":{"ha":704,"x_min":-35,"x_max":706,"o":"m 514 842 q 439 867 473 842 q 412 888 425 878 q 358 914 382 914 q 318 898 334 914 q 287 840 302 881 l 191 840 q 270 994 221 943 q 383 1044 319 1044 q 433 1033 410 1044 q 472 1008 457 1022 q 543 972 511 972 q 579 989 565 972 q 610 1046 593 1006 l 706 1046 q 627 893 677 945 q 514 842 577 842 m 449 536 q 389 616 449 616 q 292 559 332 616 q 223 363 253 502 l 146 0 l -35 0 l 126 755 l 269 755 l 271 659 l 282 659 q 369 741 317 711 q 481 770 421 770 q 642 602 642 770 q 629 493 642 554 l 524 0 l 342 0 l 437 450 q 449 536 449 500 z "},"ò":{"ha":686,"x_min":3,"x_max":621,"o":"m 220 1064 l 436 1064 q 467 961 445 1026 q 509 860 490 896 l 505 842 l 378 842 q 280 952 332 886 q 217 1050 228 1019 l 220 1064 m 19 379 q 159 667 59 564 q 395 770 258 770 q 586 664 531 770 q 621 512 621 602 q 605 379 621 452 q 465 90 566 193 q 227 -14 365 -14 q 222 -14 224 -14 q 37 93 94 -14 q 3 246 3 157 q 19 379 3 307 m 437 508 q 362 615 437 615 q 268 557 306 615 q 203 379 229 499 q 186 249 186 302 q 261 140 186 140 q 420 379 370 140 q 437 508 437 456 z "},"ó":{"ha":686,"x_min":3,"x_max":695,"o":"m 695 1064 l 692 1050 q 591 956 671 1023 q 442 842 511 890 l 315 842 l 319 860 q 405 961 355 897 q 479 1064 454 1025 l 695 1064 m 19 379 q 159 667 59 564 q 395 770 258 770 q 586 664 531 770 q 621 512 621 602 q 605 379 621 452 q 465 90 566 193 q 227 -14 365 -14 q 222 -14 224 -14 q 37 93 94 -14 q 3 246 3 157 q 19 379 3 307 m 437 508 q 362 615 437 615 q 268 557 306 615 q 203 379 229 499 q 186 249 186 302 q 261 140 186 140 q 420 379 370 140 q 437 508 437 456 z "},"ô":{"ha":686,"x_min":3,"x_max":656,"o":"m 364 1064 l 552 1064 q 656 860 571 1006 l 652 842 l 538 842 q 435 962 483 890 q 283 842 363 897 l 170 842 l 174 860 q 364 1064 325 1010 m 19 379 q 159 667 59 564 q 395 770 258 770 q 586 664 531 770 q 621 512 621 602 q 605 379 621 452 q 465 90 566 193 q 227 -14 365 -14 q 222 -14 224 -14 q 37 93 94 -14 q 3 246 3 157 q 19 379 3 307 m 437 508 q 362 615 437 615 q 268 557 306 615 q 203 379 229 499 q 186 249 186 302 q 261 140 186 140 q 420 379 370 140 q 437 508 437 456 z "},"õ":{"ha":686,"x_min":5,"x_max":698,"o":"m 506 842 q 431 867 465 842 q 404 888 417 878 q 350 914 374 914 q 310 898 326 914 q 279 840 294 881 l 184 840 q 262 993 213 942 q 376 1044 311 1044 q 426 1033 402 1044 q 464 1008 450 1022 q 535 972 503 972 q 571 989 557 972 q 602 1046 585 1006 l 698 1046 q 619 893 669 945 q 506 842 569 842 m 21 379 q 161 667 61 564 q 396 770 260 770 q 588 664 532 770 q 623 511 623 601 q 607 379 623 451 q 467 90 568 193 q 229 -14 367 -14 q 224 -14 227 -14 q 39 93 96 -14 q 5 246 5 157 q 21 379 5 307 m 439 508 q 364 615 439 615 q 270 557 308 615 q 205 379 231 499 q 189 249 189 302 q 263 140 189 140 q 422 379 372 140 q 439 508 439 456 z "},"ö":{"ha":686,"x_min":5,"x_max":665,"o":"m 250 1016 q 320 1039 278 1039 q 381 1015 362 1039 q 395 974 395 998 q 392 951 395 963 q 354 889 383 912 q 283 865 325 865 q 222 888 241 865 q 210 921 210 903 q 250 1016 210 983 m 519 1016 q 590 1039 548 1039 q 652 1016 632 1039 q 665 975 665 1000 q 663 951 665 964 q 625 888 654 911 q 554 865 596 865 q 492 888 512 865 q 479 922 479 905 q 519 1016 479 983 m 22 379 q 162 667 62 564 q 398 770 262 770 q 589 664 534 770 q 623 512 623 602 q 608 379 623 452 q 468 90 568 193 q 230 -14 368 -14 q 225 -14 227 -14 q 40 93 97 -14 q 5 246 5 157 q 22 379 5 307 m 440 508 q 365 615 440 615 q 270 557 309 615 q 206 379 232 499 q 189 249 189 302 q 264 140 189 140 q 423 379 372 140 q 440 508 440 456 z "},"÷":{"ha":623,"x_min":57,"x_max":565,"o":"m 381 825 q 448 762 448 825 q 444 726 448 746 q 406 654 434 681 q 339 628 378 628 q 282 652 300 628 q 271 687 271 667 q 275 726 271 707 q 381 825 297 825 m 535 419 l 57 419 l 87 559 l 565 559 l 535 419 m 281 351 q 338 326 321 351 q 347 291 347 311 q 343 253 347 271 q 306 180 333 207 q 239 154 278 154 q 182 178 200 154 q 171 214 171 193 q 175 253 171 234 q 281 351 195 351 z "},"ø":{"ha":686,"x_min":-1,"x_max":689,"o":"m 654 513 q 638 379 654 452 q 498 90 599 195 q 260 -14 397 -14 q 153 11 197 -14 l 98 -65 l -1 -14 l 74 89 q 37 245 37 152 q 52 379 37 306 q 191 666 91 563 q 429 770 292 770 q 543 742 495 770 l 591 807 l 689 757 l 620 661 q 654 513 654 602 m 395 615 q 231 379 281 615 l 220 330 l 212 282 l 446 604 q 395 615 425 615 m 294 140 q 460 379 409 140 l 474 458 l 250 149 q 294 140 266 140 z "},"ù":{"ha":704,"x_min":1,"x_max":678,"o":"m 223 1064 l 439 1064 q 470 961 448 1026 q 512 860 492 896 l 508 842 l 381 842 q 283 952 335 886 q 220 1050 231 1019 l 223 1064 m 193 220 q 252 139 193 139 q 350 197 311 139 q 419 393 389 255 l 496 755 l 678 755 l 517 0 l 373 0 l 372 97 l 362 97 q 273 16 326 45 q 161 -14 220 -14 q 1 153 1 -14 q 14 262 1 201 l 118 755 l 300 755 l 205 306 q 193 220 193 255 z "},"ú":{"ha":704,"x_min":1,"x_max":705,"o":"m 705 1064 l 702 1050 q 602 956 682 1023 q 452 842 522 890 l 326 842 l 330 860 q 415 961 365 897 q 490 1064 465 1025 l 705 1064 m 193 220 q 252 139 193 139 q 350 197 311 139 q 419 393 389 255 l 496 755 l 678 755 l 517 0 l 373 0 l 372 97 l 362 97 q 273 16 326 45 q 161 -14 220 -14 q 1 153 1 -14 q 14 262 1 201 l 118 755 l 300 755 l 205 306 q 193 220 193 255 z "},"û":{"ha":704,"x_min":1,"x_max":678,"o":"m 372 1064 l 560 1064 q 664 860 579 1006 l 660 842 l 546 842 q 444 962 491 890 q 292 842 372 897 l 178 842 l 182 860 q 372 1064 333 1010 m 193 220 q 252 139 193 139 q 350 197 311 139 q 419 393 389 255 l 496 755 l 678 755 l 517 0 l 373 0 l 372 97 l 362 97 q 273 16 326 45 q 161 -14 220 -14 q 1 153 1 -14 q 14 262 1 201 l 118 755 l 300 755 l 205 306 q 193 220 193 255 z "},"ü":{"ha":704,"x_min":3,"x_max":681,"o":"m 256 1016 q 327 1039 285 1039 q 388 1015 369 1039 q 401 974 401 998 q 399 951 401 963 q 361 889 390 912 q 290 865 332 865 q 229 888 248 865 q 216 921 216 903 q 256 1016 216 983 m 526 1016 q 597 1039 555 1039 q 659 1016 639 1039 q 672 975 672 1000 q 669 951 672 964 q 632 888 661 911 q 561 865 603 865 q 499 888 519 865 q 486 922 486 905 q 526 1016 486 983 m 196 220 q 255 139 196 139 q 353 197 314 139 q 422 393 392 255 l 498 755 l 681 755 l 520 0 l 376 0 l 374 97 l 365 97 q 275 16 328 45 q 163 -14 222 -14 q 3 153 3 -14 q 16 262 3 201 l 121 755 l 303 755 l 208 306 q 196 220 196 255 z "},"ý":{"ha":619,"x_min":-117,"x_max":702,"o":"m 691 1064 l 688 1050 q 589 957 665 1020 q 438 842 513 895 l 311 842 l 315 860 q 403 965 351 897 q 475 1064 456 1034 l 691 1064 m -24 -334 q -117 -322 -77 -334 l -85 -171 q -24 -179 -60 -179 q 121 -60 66 -179 l 144 -12 l 83 755 l 270 755 l 284 329 q 285 282 285 316 q 275 170 285 248 l 279 170 q 298 227 283 184 l 320 293 q 512 755 326 311 l 702 755 l 314 -54 q 163 -269 241 -205 q -24 -334 85 -334 z "},"þ":{"ha":689,"x_min":-71,"x_max":663,"o":"m 506 770 q 646 667 610 770 q 663 547 663 618 q 643 379 663 475 q 522 91 604 196 q 333 -14 439 -14 q 251 9 284 -14 q 199 86 218 33 l 189 86 q 176 -25 182 0 l 111 -334 l -71 -334 l 224 1055 l 405 1055 l 352 808 q 345 779 347 786 q 339 757 343 772 q 311 657 331 726 l 320 657 q 409 744 365 718 q 506 770 453 770 m 242 241 q 313 142 242 142 q 459 382 407 142 q 476 514 476 461 q 412 616 476 616 q 326 567 359 616 q 267 404 292 518 l 261 380 q 242 241 242 294 z "},"ÿ":{"ha":619,"x_min":-114,"x_max":705,"o":"m 250 1016 q 320 1039 278 1039 q 381 1015 362 1039 q 395 974 395 998 q 392 951 395 963 q 355 889 384 912 q 283 865 326 865 q 222 888 241 865 q 210 921 210 903 q 250 1016 210 983 m 519 1016 q 590 1039 548 1039 q 652 1016 632 1039 q 665 975 665 1000 q 663 951 665 964 q 625 888 654 911 q 554 865 596 865 q 492 888 512 865 q 479 922 479 905 q 519 1016 479 983 m -21 -334 q -114 -322 -74 -334 l -82 -171 q -22 -179 -57 -179 q 123 -60 69 -179 l 146 -12 l 85 755 l 273 755 l 287 329 q 288 282 288 316 q 278 170 288 248 l 282 170 q 300 227 286 184 l 323 293 q 515 755 329 311 l 705 755 l 316 -54 q 166 -269 245 -204 q -21 -334 88 -334 z "},"ı":{"ha":336,"x_min":-2,"x_max":338,"o":"m 178 0 l -2 0 l 158 755 l 338 755 l 178 0 z "},"Œ":{"ha":981,"x_min":34,"x_max":1027,"o":"m 305 -14 q 68 118 134 -14 q 34 288 34 190 q 58 498 34 386 q 230 876 110 745 q 524 1007 350 1007 q 627 991 577 1007 l 1027 991 l 994 832 l 734 832 l 684 596 l 924 596 l 890 436 l 650 436 l 591 161 l 851 161 l 817 0 l 410 0 q 305 -14 354 -14 m 223 322 q 340 150 223 150 q 406 160 377 150 l 550 835 q 489 844 519 844 q 343 756 405 844 q 245 497 281 668 q 223 322 223 395 z "},"œ":{"ha":1039,"x_min":35,"x_max":1019,"o":"m 673 -14 q 481 82 540 -14 q 258 -14 382 -14 q 254 -14 256 -14 q 69 92 125 -14 q 35 246 35 157 q 50 379 35 307 q 190 667 90 564 q 428 770 290 770 q 604 675 545 770 q 817 770 696 770 q 989 679 938 770 q 1019 544 1019 624 q 1006 428 1019 491 l 985 332 l 625 332 q 617 252 617 292 q 633 182 617 212 q 731 132 662 132 q 924 187 821 132 l 893 39 q 673 -14 793 -14 m 846 538 q 784 631 846 631 q 710 588 744 631 q 655 463 677 546 l 838 463 q 846 538 846 506 m 469 508 q 393 615 469 615 q 299 557 337 615 q 235 379 260 499 q 218 250 218 302 q 293 140 218 140 q 452 379 401 140 q 469 508 469 456 z "},"Š":{"ha":574,"x_min":-82,"x_max":676,"o":"m 676 1293 l 672 1275 q 481 1071 528 1131 l 294 1071 q 190 1275 278 1122 l 194 1293 l 308 1293 q 411 1173 363 1245 q 562 1293 489 1242 l 676 1293 m 146 147 q 231 176 198 147 q 275 256 264 204 q 279 285 279 271 q 262 346 279 317 q 183 432 241 386 q 99 520 125 479 q 66 612 74 561 q 64 656 64 629 q 73 729 64 684 q 186 931 101 857 q 391 1006 275 1006 q 599 942 508 1006 l 506 794 q 372 843 432 843 q 297 814 328 843 q 256 733 267 785 q 252 693 252 716 q 266 646 252 671 q 349 561 287 608 q 456 428 433 495 q 469 350 469 389 q 461 273 469 311 q 346 60 431 134 q 129 -14 260 -14 q -82 37 -1 -14 l -43 220 q 146 147 53 147 z "},"š":{"ha":519,"x_min":-64,"x_max":616,"o":"m 616 1064 l 612 1046 q 421 842 468 902 l 233 842 q 130 1046 218 893 l 134 1064 l 248 1064 q 351 943 305 1014 q 502 1064 429 1013 l 616 1064 m -31 187 q 48 144 3 161 q 133 127 92 127 q 199 148 173 127 q 236 223 236 176 q 220 268 236 246 q 153 326 204 290 q 57 430 81 375 q 43 497 43 463 q 147 713 43 639 q 334 770 226 770 q 519 717 441 770 l 432 587 q 313 627 370 627 q 258 609 280 627 q 231 564 237 591 q 229 540 229 555 q 242 506 229 526 q 312 448 256 487 q 390 379 368 408 q 421 310 412 350 q 424 274 424 295 q 418 221 424 252 q 315 48 394 109 q 119 -14 237 -14 q -64 31 1 -14 l -31 187 z "},"Ÿ":{"ha":652,"x_min":76,"x_max":728,"o":"m 256 1245 q 326 1268 284 1268 q 387 1244 368 1268 q 400 1211 400 1227 q 360 1118 400 1150 q 289 1095 331 1095 q 228 1118 247 1095 q 215 1150 215 1133 q 256 1245 215 1212 m 488 1181 q 525 1245 496 1221 q 596 1268 554 1268 q 658 1245 638 1268 q 671 1211 671 1229 q 631 1118 671 1149 q 559 1095 602 1095 q 498 1118 517 1095 q 485 1158 485 1135 q 488 1181 485 1169 m 366 397 l 281 0 l 100 0 l 182 390 l 76 991 l 271 991 l 319 600 l 534 991 l 728 991 l 366 397 z "},"Ž":{"ha":595,"x_min":-109,"x_max":675,"o":"m 675 1293 l 671 1275 q 480 1071 530 1135 l 292 1071 q 189 1275 277 1122 l 193 1293 l 307 1293 q 410 1173 361 1245 q 561 1293 488 1242 l 675 1293 m 602 863 l 136 161 l 463 161 l 428 0 l -109 0 l -81 129 l 385 831 l 78 831 l 112 991 l 629 991 l 602 863 z "},"ž":{"ha":496,"x_min":-85,"x_max":604,"o":"m 604 1064 l 600 1046 q 410 842 460 906 l 222 842 q 118 1046 206 893 l 122 1064 l 236 1064 q 339 943 291 1016 q 490 1064 417 1013 l 604 1064 m 479 628 l 151 146 l 386 146 l 355 0 l -85 0 l -61 115 l 276 610 l 59 610 l 90 755 l 506 755 l 479 628 z "},"ƒ":{"ha":643,"x_min":-106,"x_max":743,"o":"m 584 1006 q 743 975 677 1006 l 667 835 q 578 854 618 854 q 515 828 538 854 q 481 750 492 802 l 471 699 l 619 699 l 588 554 l 439 554 l 303 -82 q 201 -270 277 -205 q 7 -334 125 -334 q -106 -318 -52 -334 l -74 -167 q 7 -179 -37 -179 q 78 -150 50 -179 q 119 -58 105 -121 l 249 554 l 136 554 l 156 646 l 280 699 l 292 757 q 389 946 319 886 q 584 1006 458 1006 z "},"ˆ":{"ha":770,"x_min":119,"x_max":606,"o":"m 314 1064 l 502 1064 q 606 860 521 1006 l 602 842 l 488 842 q 385 962 433 890 q 233 842 313 897 l 119 842 l 123 860 q 314 1064 275 1010 z "},"ˇ":{"ha":770,"x_min":163,"x_max":649,"o":"m 649 1064 l 645 1046 q 454 842 501 902 l 267 842 q 163 1046 251 893 l 167 1064 l 281 1064 q 384 943 338 1014 q 535 1064 462 1013 l 649 1064 z "},"˘":{"ha":764,"x_min":189,"x_max":615,"o":"m 615 1063 q 517 899 585 956 q 353 842 450 842 q 217 899 257 842 q 189 1001 189 939 q 195 1063 189 1029 l 303 1063 q 302 1040 302 1050 q 316 994 302 1010 q 384 978 330 978 q 464 997 439 978 q 506 1063 488 1015 l 615 1063 z "},"˙":{"ha":386,"x_min":85,"x_max":300,"o":"m 214 1050 q 300 982 300 1050 q 297 953 300 968 q 255 881 287 905 q 173 856 223 856 q 85 924 85 856 q 89 953 85 937 q 214 1050 109 1050 z "},"˚":{"ha":757,"x_min":206,"x_max":551,"o":"m 211 999 q 281 1115 226 1072 q 410 1157 336 1157 q 522 1114 484 1157 q 551 1036 551 1082 q 547 1000 551 1019 q 474 883 530 926 q 343 840 418 840 q 232 882 269 840 q 206 957 206 911 q 211 999 206 977 m 415 949 q 446 1022 446 975 q 433 1051 446 1035 q 391 1067 420 1067 q 338 1048 361 1067 q 307 979 307 1022 q 315 948 307 960 q 360 930 329 930 q 415 949 392 930 z "},"˛":{"ha":282,"x_min":-50,"x_max":271,"o":"m 123 -170 q 31 -107 123 -123 l 107 0 l 224 0 l 189 -52 q 256 -96 234 -64 q 271 -147 271 -117 q 267 -176 271 -161 q 194 -292 252 -251 q 37 -334 136 -334 q -50 -319 -13 -334 l -27 -215 q 52 -227 14 -227 q 121 -182 113 -227 q 123 -170 123 -176 z "},"˜":{"ha":770,"x_min":128,"x_max":642,"o":"m 450 842 q 376 867 409 842 q 349 888 361 878 q 294 914 318 914 q 255 898 271 914 q 224 840 239 881 l 128 840 q 207 993 157 942 q 320 1044 256 1044 q 370 1033 347 1044 q 408 1008 394 1022 q 479 972 447 972 q 515 989 501 972 q 547 1046 530 1006 l 642 1046 q 563 893 613 945 q 450 842 513 842 z "},"˝":{"ha":779,"x_min":79,"x_max":700,"o":"m 435 1064 l 431 1050 q 326 952 406 1018 q 182 842 245 886 l 79 842 l 83 860 q 165 957 118 897 q 245 1064 213 1017 l 435 1064 m 700 1064 l 696 1050 q 594 956 673 1021 q 446 842 515 890 l 345 842 l 349 860 q 431 957 383 897 q 510 1064 478 1017 l 700 1064 z "},"ְ":{"ha":0,"x_min":-83,"x_max":82,"o":"m -20 -84 q 30 -68 0 -68 q 71 -82 59 -68 q 82 -108 82 -96 q 54 -170 82 -149 q 4 -186 34 -186 q -37 -173 -25 -186 q -48 -148 -48 -159 q -20 -84 -48 -106 m -55 -248 q -5 -232 -35 -232 q 36 -245 24 -232 q 47 -271 47 -259 q 20 -334 47 -312 q -30 -349 -1 -349 q -71 -336 -60 -349 q -83 -311 -83 -323 q -55 -248 -83 -270 z "},"ֱ":{"ha":0,"x_min":-238,"x_max":273,"o":"m -210 -95 q -161 -79 -190 -79 q -120 -92 -132 -79 q -108 -118 -108 -106 q -136 -180 -108 -159 q -186 -196 -157 -196 q -227 -183 -215 -196 q -238 -158 -238 -170 q -210 -95 -238 -116 m -9 -94 q 40 -79 11 -79 q 82 -93 70 -79 q 94 -119 94 -106 q 66 -180 94 -159 q 15 -196 45 -196 q -26 -183 -15 -196 q -37 -159 -37 -170 q -9 -94 -37 -115 m 171 -95 q 221 -79 191 -79 q 262 -92 250 -79 q 273 -118 273 -106 q 245 -180 273 -159 q 196 -196 225 -196 q 155 -183 166 -196 q 143 -158 143 -170 q 171 -95 143 -116 m -142 -258 q -92 -242 -121 -242 q -52 -256 -63 -242 q -40 -281 -40 -269 q -68 -343 -40 -322 q -118 -359 -88 -359 q -158 -346 -147 -359 q -170 -321 -170 -333 q -142 -258 -170 -279 m 136 -258 q 186 -242 157 -242 q 227 -256 216 -242 q 239 -281 239 -269 q 211 -343 239 -322 q 161 -359 191 -359 q 120 -346 132 -359 q 109 -321 109 -333 q 136 -258 109 -280 z "},"ֲ":{"ha":0,"x_min":-207,"x_max":235,"o":"m 134 -94 q 144 -86 134 -94 q 183 -79 154 -79 q 224 -92 212 -79 q 235 -118 235 -106 q 208 -180 235 -159 q 158 -196 187 -196 q 117 -183 128 -196 q 106 -158 106 -170 q 108 -138 106 -146 q 134 -94 113 -110 m 42 -176 l -207 -176 l -191 -96 l 58 -96 l 42 -176 m 99 -258 q 149 -242 119 -242 q 189 -256 178 -242 q 201 -281 201 -269 q 173 -343 201 -322 q 123 -359 153 -359 q 82 -346 94 -359 q 71 -321 71 -333 q 99 -258 71 -279 z "},"ֳ":{"ha":0,"x_min":-208,"x_max":237,"o":"m 134 -95 q 184 -79 155 -79 q 225 -92 214 -79 q 237 -118 237 -106 q 209 -180 237 -159 q 159 -196 189 -196 q 118 -183 130 -196 q 106 -158 106 -170 q 134 -95 106 -116 m 41 -176 l -46 -176 l -75 -313 l -151 -313 l -121 -176 l -208 -176 l -192 -96 l 57 -96 l 41 -176 m 100 -258 q 150 -242 120 -242 q 191 -256 179 -242 q 202 -281 202 -269 q 174 -343 202 -322 q 124 -359 154 -359 q 83 -346 95 -359 q 72 -321 72 -333 q 100 -258 72 -280 z "},"ִ":{"ha":0,"x_min":-66,"x_max":66,"o":"m -38 -91 q 12 -75 -18 -75 q 54 -89 41 -75 q 66 -115 66 -103 q 38 -176 66 -155 q -13 -193 17 -193 q -54 -180 -43 -193 q -66 -155 -66 -167 q -38 -91 -66 -112 z "},"ֵ":{"ha":0,"x_min":-166,"x_max":166,"o":"m -138 -78 q -128 -70 -138 -78 q -89 -62 -118 -62 q -48 -76 -60 -62 q -37 -102 -37 -90 q -64 -164 -37 -142 q -114 -180 -84 -180 q -155 -166 -143 -180 q -166 -141 -166 -153 q -164 -121 -166 -130 q -138 -78 -159 -94 m 36 -121 q 62 -78 41 -94 q 112 -62 82 -62 q 154 -76 142 -62 q 166 -102 166 -90 q 138 -164 166 -142 q 87 -180 117 -180 q 46 -166 58 -180 q 34 -141 34 -153 q 36 -121 34 -130 z "},"ֶ":{"ha":0,"x_min":-151,"x_max":182,"o":"m -123 -94 q -113 -86 -123 -94 q -73 -79 -102 -79 q -33 -92 -44 -79 q -21 -118 -21 -106 q -49 -180 -21 -159 q -99 -196 -69 -196 q -139 -183 -128 -196 q -151 -158 -151 -170 q -149 -138 -151 -146 q -123 -94 -143 -110 m 77 -94 q 127 -79 98 -79 q 170 -93 157 -79 q 182 -119 182 -106 q 153 -180 182 -159 q 102 -196 132 -196 q 61 -183 73 -196 q 50 -158 50 -170 q 77 -94 50 -115 m -55 -258 q -5 -242 -35 -242 q 36 -256 24 -242 q 47 -281 47 -269 q 20 -343 47 -322 q -30 -359 -1 -359 q -71 -346 -60 -359 q -83 -321 -83 -333 q -55 -258 -83 -280 z "},"ַ":{"ha":0,"x_min":-141,"x_max":142,"o":"m 125 -159 l -141 -159 l -125 -80 l 142 -80 l 125 -159 z "},"ָ":{"ha":0,"x_min":-123,"x_max":153,"o":"m 136 -173 l 43 -173 l 14 -310 l -61 -310 l -32 -173 l -123 -173 l -106 -94 l 153 -94 l 136 -173 z "},"ֹ":{"ha":0,"x_min":-64,"x_max":67,"o":"m -37 1058 q 13 1074 -16 1074 q 55 1060 43 1074 q 67 1034 67 1046 q 39 972 67 994 q -12 956 18 956 q -53 969 -41 956 q -64 994 -64 982 q -37 1058 -64 1037 z "},"ֺ":{"ha":0,"x_min":-66,"x_max":66,"o":"m -38 1058 q 12 1074 -18 1074 q 54 1060 41 1074 q 66 1034 66 1046 q 38 972 66 994 q -13 956 17 956 q -54 969 -43 956 q -66 994 -66 982 q -38 1058 -66 1037 z "},"ֻ":{"ha":0,"x_min":-99,"x_max":230,"o":"m -71 -102 q -22 -86 -51 -86 q 19 -100 7 -86 q 30 -125 30 -113 q 3 -188 30 -167 q -47 -203 -18 -203 q -88 -190 -77 -203 q -99 -165 -99 -177 q -71 -102 -99 -123 m 26 -221 q 76 -205 46 -205 q 117 -219 105 -205 q 128 -245 128 -233 q 101 -307 128 -286 q 51 -323 81 -323 q 10 -310 22 -323 q -2 -285 -2 -296 q 26 -221 -2 -243 m 126 -340 q 176 -324 146 -324 q 218 -338 205 -324 q 230 -364 230 -352 q 202 -426 230 -404 q 151 -441 180 -441 q 110 -429 121 -441 q 98 -404 98 -416 q 126 -340 98 -361 z "},"ּ":{"ha":0,"x_min":-66,"x_max":66,"o":"m -38 488 q 12 504 -18 504 q 54 490 41 504 q 66 464 66 476 q 38 403 66 424 q -13 387 17 387 q -54 399 -43 387 q -66 425 -66 412 q -38 488 -66 467 z "},"ֽ":{"ha":0,"x_min":-60,"x_max":60,"o":"m 9 -345 l -60 -345 l -10 -106 l 60 -106 l 9 -345 z "},"־":{"ha":439,"x_min":120,"x_max":495,"o":"m 461 716 l 120 716 l 154 875 l 495 875 l 461 716 z "},"ׁ":{"ha":0,"x_min":-66,"x_max":66,"o":"m -38 1058 q 12 1074 -18 1074 q 54 1060 41 1074 q 66 1034 66 1046 q 38 972 66 994 q -13 956 17 956 q -54 969 -43 956 q -66 994 -66 982 q -38 1058 -66 1037 z "},"ׂ":{"ha":0,"x_min":-66,"x_max":66,"o":"m -38 1058 q 12 1074 -18 1074 q 54 1060 41 1074 q 66 1034 66 1046 q 38 972 66 994 q -13 956 17 956 q -54 969 -43 956 q -66 994 -66 982 q -38 1058 -66 1037 z "},"ׇ":{"ha":0,"x_min":-130,"x_max":163,"o":"m 149 -142 l 39 -142 l 6 -301 l -57 -301 l -24 -142 l -130 -142 l -115 -75 l 163 -75 l 149 -142 z "},"א":{"ha":694,"x_min":-35,"x_max":750,"o":"m 750 875 l 684 562 q 663 489 675 521 q 629 422 651 458 q 476 313 582 349 l 557 0 l 349 0 l 262 415 q 212 315 227 387 l 145 0 l -35 0 l 32 313 q 51 382 40 352 q 83 447 62 412 q 224 555 126 517 l 134 875 l 342 875 l 409 575 l 441 450 q 503 559 485 479 l 570 875 l 750 875 z "},"ב":{"ha":629,"x_min":-37,"x_max":563,"o":"m 149 878 q 306 888 232 888 q 418 882 379 888 q 485 863 458 875 q 529 830 512 850 q 563 722 563 789 q 545 584 563 669 l 452 146 l 543 146 l 512 0 l -37 0 l -7 146 l 271 146 l 364 585 q 374 660 374 629 q 363 708 374 691 q 270 741 343 741 q 134 732 186 741 l 117 730 l 149 878 z "},"ג":{"ha":533,"x_min":-69,"x_max":519,"o":"m 205 873 q 319 888 254 888 q 424 876 384 888 q 486 841 465 863 q 519 736 519 807 q 505 628 519 697 l 371 0 l 241 0 l 237 127 l 227 127 q 194 81 217 107 q 147 36 171 54 q 82 2 123 17 q -2 -14 42 -14 q -69 -6 -29 -14 l -19 161 q 1 157 -17 159 q 37 155 20 155 q 168 182 113 155 q 230 243 210 202 q 267 357 250 283 l 324 628 q 330 671 330 652 q 267 737 330 737 q 186 726 225 737 l 173 722 l 205 873 z "},"ד":{"ha":572,"x_min":80,"x_max":653,"o":"m 653 875 l 624 737 q 482 555 513 700 l 364 0 l 184 0 l 302 560 q 328 628 311 597 q 363 675 345 659 q 429 720 402 711 l 440 724 l 441 729 l 80 729 l 111 875 l 653 875 z "},"ה":{"ha":704,"x_min":-18,"x_max":682,"o":"m 284 879 q 326 884 284 879 q 443 888 367 888 q 566 875 518 888 q 640 838 614 862 q 682 715 682 801 q 665 584 682 668 l 541 0 l 359 0 l 484 585 q 493 659 493 628 q 482 708 493 690 q 389 741 462 741 q 275 735 339 741 q 173 722 212 728 l 134 715 l 165 859 q 284 879 201 870 m 163 0 l -18 0 l 101 558 l 282 558 l 163 0 z "},"ו":{"ha":334,"x_min":-16,"x_max":350,"o":"m 164 0 l -16 0 l 170 875 l 350 875 l 164 0 z "},"ז":{"ha":387,"x_min":-3,"x_max":460,"o":"m 460 875 l 429 729 q 378 659 410 706 q 324 567 346 612 q 286 471 302 522 q 240 294 261 393 l 178 0 l -3 0 l 60 294 q 140 530 90 435 q 229 664 186 620 q 290 719 271 708 l 300 724 l 300 729 l 128 729 l 159 875 l 460 875 z "},"ח":{"ha":704,"x_min":-18,"x_max":682,"o":"m 640 838 q 682 715 682 801 q 665 584 682 668 l 541 0 l 359 0 l 484 585 q 493 659 493 628 q 482 708 493 690 q 389 741 462 741 q 319 735 363 741 l 163 0 l -18 0 l 165 859 q 449 888 314 888 q 640 838 585 888 z "},"ט":{"ha":704,"x_min":48,"x_max":674,"o":"m 495 629 q 426 741 495 741 l 379 737 l 410 882 q 478 888 444 888 q 582 859 540 888 q 644 784 625 830 q 674 610 674 714 q 655 445 674 533 q 611 289 637 357 q 557 176 585 222 q 496 95 529 130 q 432 40 463 60 q 369 7 401 20 q 313 -9 337 -5 q 266 -14 289 -14 q 220 -9 243 -14 q 171 7 198 -5 q 122 40 144 20 q 82 95 100 60 q 48 255 48 159 q 69 437 48 338 l 162 873 l 346 873 l 254 438 q 229 245 229 316 q 297 134 229 134 q 358 158 330 134 q 415 252 385 182 q 467 424 445 322 q 492 568 488 526 q 495 629 495 610 z "},"י":{"ha":334,"x_min":46,"x_max":350,"o":"m 264 471 l 115 296 l 46 296 l 170 875 l 350 875 l 264 471 z "},"ך":{"ha":557,"x_min":98,"x_max":521,"o":"m 130 870 q 288 888 214 888 q 403 874 361 888 q 468 831 444 859 q 521 688 517 775 q 521 653 521 676 q 501 500 521 591 l 323 -334 l 143 -334 l 321 500 q 334 602 334 564 q 330 667 334 639 q 308 714 326 695 q 258 734 289 734 q 98 720 201 734 l 130 870 z "},"כ":{"ha":538,"x_min":-54,"x_max":520,"o":"m 130 870 q 287 888 214 888 q 402 874 361 888 q 468 831 444 859 q 519 688 517 775 q 520 653 520 676 q 501 500 520 593 l 470 354 q 391 149 446 238 q 322 65 361 100 q 230 8 284 30 q 124 -14 176 -14 q 22 -7 71 -14 q -54 7 -26 -1 l -21 163 q 132 141 47 141 q 285 354 239 141 l 316 500 q 332 624 332 574 q 258 734 332 734 q 98 723 204 734 l 130 870 z "},"ל":{"ha":558,"x_min":80,"x_max":625,"o":"m 305 875 l 625 875 l 599 753 l 395 337 l 255 0 l 80 0 l 220 337 l 412 729 l 94 729 l 163 1055 l 343 1055 l 305 875 z "},"ם":{"ha":704,"x_min":-18,"x_max":682,"o":"m 167 869 q 277 882 199 876 q 436 888 355 888 q 566 875 518 888 q 640 838 614 862 q 682 715 682 801 q 665 584 682 668 l 541 0 l -18 0 l 167 869 m 484 585 q 493 659 493 628 q 482 708 493 690 q 389 741 462 741 q 320 739 340 741 l 194 146 l 390 146 l 484 585 z "},"מ":{"ha":734,"x_min":-65,"x_max":703,"o":"m 395 842 q 407 850 395 842 q 461 874 420 859 q 546 888 502 888 q 622 874 591 888 q 671 833 654 860 q 703 708 703 781 q 678 507 703 624 l 570 0 l 227 0 l 258 146 l 420 146 l 497 506 q 515 637 515 586 q 452 736 515 736 q 400 722 426 736 q 355 686 374 707 q 300 610 318 646 l 292 595 l 115 0 l -65 0 l 103 568 q 132 751 132 659 q 130 798 132 774 l 121 875 l 293 875 q 300 814 298 849 l 302 753 l 311 753 q 320 768 315 759 q 348 801 326 777 q 395 842 370 824 z "},"ן":{"ha":321,"x_min":-97,"x_max":304,"o":"m 300 875 q 304 825 304 852 q 298 724 304 799 q 273 559 292 649 l 83 -334 l -97 -334 q 94 567 77 484 q 118 717 112 649 q 123 808 123 785 q 123 841 123 831 l 120 875 l 300 875 z "},"נ":{"ha":485,"x_min":-65,"x_max":471,"o":"m 161 875 q 273 888 227 888 q 353 882 319 888 q 409 864 387 875 q 445 834 431 852 q 465 795 458 815 q 471 746 471 775 q 455 628 471 703 l 374 248 q 339 122 360 184 q 302 30 317 60 l 288 0 l -65 0 l -35 146 l 159 146 q 205 302 183 198 l 275 628 q 258 728 292 706 q 223 737 243 737 q 188 735 203 737 q 166 732 173 734 q 129 724 144 730 l 161 875 z "},"ס":{"ha":685,"x_min":29,"x_max":656,"o":"m 438 888 q 533 868 488 888 q 582 836 560 856 q 623 781 604 816 q 656 618 656 718 q 637 446 656 535 q 592 289 618 357 q 538 176 566 222 q 477 95 510 130 q 413 40 444 60 q 350 7 382 20 q 294 -9 318 -5 q 247 -14 270 -14 q 201 -9 224 -14 q 152 7 179 -5 q 103 40 125 20 q 63 95 81 60 q 29 256 29 160 q 49 430 29 338 q 116 606 68 522 q 210 726 164 690 l 211 731 l 120 725 l 151 869 q 438 888 274 888 m 476 629 q 407 741 476 741 q 358 735 387 741 q 286 617 313 686 q 237 449 258 549 q 212 308 216 350 q 209 248 209 266 q 278 134 209 134 q 339 158 311 134 q 396 252 366 182 q 448 424 426 322 q 473 568 469 526 q 476 629 476 610 z "},"ע":{"ha":659,"x_min":-62,"x_max":728,"o":"m 296 480 l 275 211 q 362 321 323 256 q 421 452 401 387 l 547 874 l 728 874 l 610 482 q 545 307 574 365 q 461 178 506 230 q 330 68 399 107 q 138 -3 245 18 l -62 -41 l -31 107 l 117 136 l 126 875 l 306 875 l 296 480 z "},"ף":{"ha":682,"x_min":56,"x_max":633,"o":"m 56 492 q 66 578 56 532 q 119 715 83 654 q 204 812 156 775 q 416 888 302 888 q 560 836 502 888 q 600 781 582 816 q 633 618 633 718 q 612 438 633 535 l 448 -334 l 268 -334 l 432 438 q 456 625 456 551 q 444 701 456 676 q 418 733 432 725 q 381 741 404 741 q 335 727 358 741 q 299 694 313 713 q 274 650 285 675 q 251 584 257 613 q 245 530 245 555 q 317 436 245 450 l 341 431 l 277 289 l 241 294 q 118 340 162 306 q 56 492 56 389 z "},"פ":{"ha":662,"x_min":19,"x_max":633,"o":"m 454 629 q 385 741 454 741 q 335 727 358 741 q 299 694 313 713 q 274 650 285 675 q 251 584 257 613 q 245 530 245 555 q 317 436 245 450 l 341 431 l 276 289 l 241 294 q 118 340 162 306 q 56 492 56 389 q 66 578 56 532 q 119 715 83 654 q 204 812 156 775 q 416 888 302 888 q 511 868 465 888 q 559 836 538 856 q 600 781 581 816 q 633 618 633 718 q 614 446 633 535 q 570 289 595 357 q 516 176 544 222 q 454 95 488 130 q 391 40 421 60 q 328 7 360 20 q 221 -14 275 -14 q 117 -9 168 -14 q 42 1 66 -4 l 19 5 l 51 157 q 256 134 177 134 q 316 158 289 134 q 374 252 344 182 q 425 424 404 322 q 450 568 447 526 q 454 629 454 610 z "},"ץ":{"ha":644,"x_min":-27,"x_max":686,"o":"m 298 295 l 287 295 l 153 -334 l -27 -334 l 127 391 l 101 875 l 301 875 l 294 448 l 293 424 l 309 424 q 393 452 363 424 q 437 547 422 481 l 506 875 l 686 875 l 617 549 q 298 295 563 295 z "},"צ":{"ha":680,"x_min":-47,"x_max":744,"o":"m 320 875 l 399 496 q 459 571 435 531 q 506 683 484 612 l 563 874 l 744 874 l 695 713 q 676 653 685 678 q 646 580 668 629 q 600 494 624 532 q 534 412 575 456 q 445 334 493 367 l 539 107 l 517 0 l -47 0 l -16 146 l 219 146 l 334 136 l 334 139 l 258 311 l 132 875 l 320 875 z "},"ק":{"ha":717,"x_min":-73,"x_max":781,"o":"m 757 762 l 562 349 q 474 157 505 231 q 431 23 444 82 l 426 0 l 247 0 l 252 23 q 372 342 278 149 l 555 729 l 153 729 l 184 875 l 781 875 l 757 762 m 108 -334 l -73 -334 l 109 524 l 290 524 l 108 -334 z "},"ר":{"ha":557,"x_min":90,"x_max":536,"o":"m 121 878 q 298 888 224 888 q 419 875 372 888 q 494 839 467 862 q 528 781 520 815 q 536 725 536 747 q 534 676 536 704 q 518 584 532 648 l 394 0 l 213 0 l 337 585 q 347 649 347 630 q 347 673 347 667 q 320 724 345 707 q 245 741 296 741 q 90 731 194 741 l 121 878 z "},"ש":{"ha":876,"x_min":6,"x_max":943,"o":"m 252 0 l 6 0 l 122 875 l 302 875 l 243 425 q 317 456 290 427 q 363 547 345 484 l 458 875 l 637 875 l 543 549 q 227 296 471 304 l 208 146 l 283 146 q 507 235 412 146 q 648 481 602 324 l 764 875 l 943 875 l 827 482 q 757 305 798 382 q 712 233 740 273 q 654 162 685 193 q 581 99 624 131 q 491 47 538 68 q 252 0 382 0 z "},"ת":{"ha":722,"x_min":-71,"x_max":702,"o":"m 188 865 q 201 867 188 865 q 297 879 214 870 q 459 888 380 888 q 586 875 538 888 q 661 838 634 862 q 702 715 702 801 q 684 584 702 668 l 560 0 l 379 0 l 503 585 q 513 660 513 629 q 503 708 513 690 q 408 741 482 741 q 370 741 385 741 l 264 247 q 227 111 245 151 q 188 47 203 62 q 154 20 172 33 q 115 1 136 8 q 9 -14 70 -14 q -61 0 -30 -14 l -71 5 l -39 150 q 1 138 -21 138 q 38 147 24 138 q 60 174 52 156 q 83 247 75 205 l 185 724 l 117 711 l 148 856 q 188 865 162 859 z "},"׳":{"ha":285,"x_min":45,"x_max":371,"o":"m 364 875 l 371 860 q 182 535 309 727 l 45 535 q 185 875 125 709 l 364 875 z "},"״":{"ha":580,"x_min":49,"x_max":670,"o":"m 368 875 l 375 860 q 186 535 313 727 l 49 535 q 189 875 129 709 l 368 875 m 663 875 l 670 860 q 481 535 608 728 l 344 535 q 484 875 422 705 l 663 875 z "},"–":{"ha":659,"x_min":32,"x_max":628,"o":"m 597 300 l 32 300 l 63 447 l 628 447 l 597 300 z "},"—":{"ha":1071,"x_min":32,"x_max":1038,"o":"m 1006 300 l 32 300 l 63 447 l 1038 447 l 1006 300 z "},"‘":{"ha":285,"x_min":-20,"x_max":307,"o":"m 307 991 q 167 652 208 774 l -12 652 l -20 667 q 63 822 15 739 q 170 991 111 905 l 307 991 z "},"’":{"ha":285,"x_min":-22,"x_max":304,"o":"m 297 991 l 304 977 q 115 652 242 844 l -22 652 q 118 991 58 826 l 297 991 z "},"‚":{"ha":375,"x_min":-1,"x_max":324,"o":"m 318 161 l 324 146 q 136 -179 260 9 l -1 -179 q 139 161 84 9 l 318 161 z "},"“":{"ha":579,"x_min":-20,"x_max":602,"o":"m 307 991 q 167 652 208 774 l -12 652 l -20 667 q 63 822 15 739 q 170 991 111 905 l 307 991 m 275 667 q 464 991 347 814 l 602 991 q 461 652 518 810 l 282 652 l 275 667 z "},"”":{"ha":579,"x_min":-22,"x_max":599,"o":"m 297 991 l 304 977 q 115 652 242 844 l -22 652 q 118 991 58 826 l 297 991 m 591 991 l 599 977 q 410 652 536 845 l 273 652 q 412 991 351 822 l 591 991 z "},"„":{"ha":669,"x_min":-1,"x_max":618,"o":"m 318 161 l 324 146 q 136 -179 260 9 l -1 -179 q 139 161 84 9 l 318 161 m 612 161 l 618 146 q 431 -179 555 9 l 293 -179 q 433 161 378 9 l 612 161 z "},"†":{"ha":694,"x_min":100,"x_max":674,"o":"m 446 772 l 674 793 l 641 637 l 421 659 l 319 0 l 138 0 l 315 659 l 100 637 l 133 793 l 340 772 l 362 1055 l 543 1055 l 446 772 z "},"‡":{"ha":694,"x_min":7,"x_max":688,"o":"m 458 800 l 688 821 l 654 665 l 433 686 l 433 533 l 366 370 l 596 390 l 563 235 l 342 256 l 326 0 l 145 0 l 237 256 l 7 235 l 40 390 l 260 370 l 264 533 l 328 686 l 98 665 l 132 821 l 352 800 l 369 1055 l 549 1055 l 458 800 z "},"•":{"ha":509,"x_min":59,"x_max":449,"o":"m 66 507 q 148 662 88 608 q 298 715 208 715 q 425 661 388 715 q 449 573 449 626 q 441 507 449 543 q 359 354 420 409 q 210 298 298 298 q 83 353 121 298 q 59 441 59 388 q 66 507 59 471 z "},"…":{"ha":1125,"x_min":26,"x_max":1009,"o":"m 77 175 q 94 190 77 175 q 166 204 111 204 q 244 175 221 204 q 259 126 259 156 q 255 93 259 111 q 208 11 244 40 q 118 -18 172 -18 q 42 11 64 -18 q 26 60 26 31 q 31 93 26 75 q 77 175 42 146 m 452 175 q 469 190 452 175 q 541 204 486 204 q 618 175 596 204 q 634 126 634 156 q 630 93 634 111 q 583 11 619 40 q 493 -18 547 -18 q 416 11 439 -18 q 401 60 401 31 q 406 93 401 75 q 452 175 417 146 m 827 175 q 844 190 827 175 q 916 204 861 204 q 994 175 971 204 q 1009 126 1009 156 q 1005 93 1009 111 q 958 11 994 40 q 868 -18 922 -18 q 792 11 814 -18 q 777 60 777 31 q 781 93 777 75 q 827 175 792 146 z "},"‰":{"ha":1496,"x_min":67,"x_max":1427,"o":"m 214 383 q 67 554 67 383 q 85 693 67 613 q 347 1006 151 1006 q 497 831 497 1006 q 481 696 497 772 q 380 463 448 543 q 214 383 312 383 m 286 0 l 146 0 l 766 991 l 907 991 l 286 0 m 353 818 q 321 875 353 875 q 271 832 292 875 q 230 701 249 789 q 212 569 212 612 q 243 514 212 514 q 294 557 272 514 q 335 688 317 600 q 353 818 353 775 m 836 610 q 987 434 987 610 q 970 300 987 376 q 869 67 938 147 q 702 -12 801 -12 q 555 160 555 -12 q 572 297 555 218 q 836 610 640 610 m 1144 -12 q 997 158 997 -12 q 1015 297 997 217 q 1276 610 1082 610 q 1427 434 1427 610 q 1411 300 1427 376 q 1310 67 1378 147 q 1144 -12 1242 -12 m 701 175 q 733 118 701 118 q 826 298 787 118 q 841 414 841 371 q 808 478 841 478 q 759 435 781 478 q 719 305 737 393 q 701 175 701 218 m 1142 173 q 1173 118 1142 118 q 1224 161 1202 118 q 1264 288 1246 204 q 1282 416 1282 372 q 1250 478 1282 478 q 1201 436 1222 478 q 1161 305 1179 393 q 1142 173 1142 216 z "},"‹":{"ha":443,"x_min":48,"x_max":444,"o":"m 444 614 l 244 378 l 343 142 l 192 66 l 48 368 l 52 386 l 325 689 l 444 614 z "},"›":{"ha":443,"x_min":0,"x_max":395,"o":"m 395 386 l 391 368 l 118 66 l 0 142 l 199 378 l 100 614 l 251 689 l 395 386 z "},"⁄":{"ha":136,"x_min":-358,"x_max":494,"o":"m -220 0 l -358 0 l 355 991 l 494 991 l -220 0 z "},"₪":{"ha":1077,"x_min":-3,"x_max":1101,"o":"m 493 875 q 671 850 597 875 q 764 781 728 831 q 793 681 789 748 q 793 660 793 673 q 790 616 793 646 q 769 493 785 570 l 731 314 l 559 314 l 597 493 q 614 610 614 564 q 577 695 614 673 q 460 717 541 717 l 330 717 l 177 0 l -3 0 l 183 875 l 493 875 m 467 0 l 248 0 l 368 561 l 547 561 l 461 158 l 499 158 q 740 259 656 158 q 809 373 781 309 q 855 526 836 438 l 929 875 l 1101 875 l 1027 526 q 912 227 985 340 q 839 139 883 182 q 743 65 795 95 q 620 18 691 36 q 467 0 549 0 z "},"€":{"ha":643,"x_min":-7,"x_max":728,"o":"m 547 1007 q 647 996 606 1007 q 728 960 688 985 l 635 814 q 520 846 577 846 q 415 793 464 846 q 329 642 366 741 l 529 642 l 505 528 l 296 528 l 278 444 l 457 444 l 433 330 l 264 330 q 264 319 264 324 q 383 149 264 149 q 552 199 456 149 l 517 35 q 329 -14 432 -14 q 134 75 197 -14 q 80 283 80 149 q 81 330 80 306 l -7 330 l 17 444 l 96 444 l 114 528 l 35 528 l 58 642 l 146 642 q 313 913 210 819 q 547 1007 417 1007 z "},"™":{"ha":926,"x_min":40,"x_max":905,"o":"m 375 896 l 260 896 l 176 503 l 71 503 l 155 896 l 40 896 l 60 991 l 395 991 l 375 896 m 593 991 l 593 660 l 743 991 l 905 991 l 800 503 l 696 503 l 762 809 l 775 864 l 772 864 l 609 503 l 509 503 l 503 864 l 498 864 l 473 736 l 424 503 l 323 503 l 427 991 l 593 991 z "},"ﬁ":{"ha":751,"x_min":-6,"x_max":774,"o":"m 441 1063 q 570 1032 513 1063 l 494 895 q 430 911 463 911 q 377 886 397 911 q 347 811 358 862 l 335 755 l 460 755 l 429 612 l 304 612 l 174 0 l -6 0 l 124 612 l 37 612 l 56 703 l 155 757 l 168 814 q 260 1002 194 941 q 441 1063 326 1063 m 575 953 q 616 1024 585 998 q 693 1050 648 1050 q 760 1024 739 1050 q 774 979 774 1006 q 771 953 774 967 q 729 882 762 907 q 653 856 697 856 q 587 882 608 856 q 572 927 572 899 q 575 953 572 939 m 560 0 l 380 0 l 541 755 l 721 755 l 560 0 z "},"ﬂ":{"ha":747,"x_min":-6,"x_max":783,"o":"m 441 1063 q 570 1032 513 1063 l 494 895 q 430 911 463 911 q 377 886 397 911 q 347 811 358 862 l 335 755 l 460 755 l 429 612 l 304 612 l 174 0 l -6 0 l 124 612 l 37 612 l 56 703 l 155 757 l 168 814 q 260 1002 194 941 q 441 1063 326 1063 m 559 0 l 378 0 l 603 1055 l 783 1055 l 559 0 z "},"שׁ":{"ha":876,"x_min":6,"x_max":987,"o":"m 883 1058 q 933 1074 903 1074 q 975 1060 962 1074 q 987 1034 987 1046 q 959 972 987 994 q 908 956 938 956 q 867 969 878 956 q 855 994 855 982 q 883 1058 855 1037 m 252 0 l 6 0 l 122 875 l 302 875 l 243 425 q 317 456 290 427 q 363 547 345 484 l 458 875 l 637 875 l 543 549 q 227 296 471 304 l 208 146 l 283 146 q 507 235 412 146 q 648 481 602 324 l 764 875 l 943 875 l 827 482 q 757 305 798 382 q 712 233 740 273 q 654 162 685 193 q 581 99 624 131 q 491 47 538 68 q 252 0 382 0 z "},"שׂ":{"ha":876,"x_min":6,"x_max":943,"o":"m 171 1058 q 221 1074 191 1074 q 262 1060 250 1074 q 275 1034 275 1046 q 247 972 275 994 q 196 956 226 956 q 155 969 166 956 q 143 994 143 982 q 171 1058 143 1037 m 252 0 l 6 0 l 122 875 l 302 875 l 243 425 q 317 456 290 427 q 363 547 345 484 l 458 875 l 637 875 l 543 549 q 227 296 471 304 l 208 146 l 283 146 q 507 235 412 146 q 648 481 602 324 l 764 875 l 943 875 l 827 482 q 757 305 798 382 q 712 233 740 273 q 654 162 685 193 q 581 99 624 131 q 491 47 538 68 q 252 0 382 0 z "},"שּׁ":{"ha":876,"x_min":6,"x_max":987,"o":"m 883 1058 q 933 1074 903 1074 q 975 1060 962 1074 q 987 1034 987 1046 q 959 972 987 994 q 908 956 938 956 q 867 969 878 956 q 855 994 855 982 q 883 1058 855 1037 m 252 0 l 6 0 l 122 875 l 302 875 l 243 425 q 317 456 290 427 q 363 547 345 484 l 458 875 l 637 875 l 543 549 q 227 296 471 304 l 208 146 l 283 146 q 507 235 412 146 q 648 481 602 324 l 764 875 l 943 875 l 827 482 q 757 305 798 382 q 712 233 740 273 q 654 162 685 193 q 581 99 624 131 q 491 47 538 68 q 252 0 382 0 m 363 307 q 413 323 383 323 q 454 309 442 323 q 467 283 467 295 q 439 221 467 243 q 388 205 418 205 q 347 218 358 205 q 335 243 335 231 q 363 307 335 286 z "},"שּׂ":{"ha":876,"x_min":6,"x_max":943,"o":"m 171 1058 q 221 1074 191 1074 q 262 1060 250 1074 q 275 1034 275 1046 q 247 972 275 994 q 196 956 226 956 q 155 969 166 956 q 143 994 143 982 q 171 1058 143 1037 m 252 0 l 6 0 l 122 875 l 302 875 l 243 425 q 317 456 290 427 q 363 547 345 484 l 458 875 l 637 875 l 543 549 q 227 296 471 304 l 208 146 l 283 146 q 507 235 412 146 q 648 481 602 324 l 764 875 l 943 875 l 827 482 q 757 305 798 382 q 712 233 740 273 q 654 162 685 193 q 581 99 624 131 q 491 47 538 68 q 252 0 382 0 m 363 307 q 413 323 383 323 q 454 309 442 323 q 467 283 467 295 q 439 221 467 243 q 388 205 418 205 q 347 218 358 205 q 335 243 335 231 q 363 307 335 286 z "},"אַ":{"ha":694,"x_min":-35,"x_max":750,"o":"m 750 875 l 684 562 q 663 489 675 521 q 629 422 651 458 q 476 313 582 349 l 557 0 l 349 0 l 262 415 q 212 315 227 387 l 145 0 l -35 0 l 32 313 q 51 382 40 352 q 83 447 62 412 q 224 555 126 517 l 134 875 l 342 875 l 409 575 l 441 450 q 503 559 485 479 l 570 875 l 750 875 m 338 -233 l 72 -233 l 88 -155 l 355 -155 l 338 -233 z "},"אָ":{"ha":694,"x_min":-35,"x_max":750,"o":"m 750 875 l 684 562 q 663 489 675 521 q 629 422 651 458 q 476 313 582 349 l 557 0 l 349 0 l 262 415 q 212 315 227 387 l 145 0 l -35 0 l 32 313 q 51 382 40 352 q 83 447 62 412 q 224 555 126 517 l 134 875 l 342 875 l 409 575 l 441 450 q 503 559 485 479 l 570 875 l 750 875 m 331 -248 l 239 -248 l 210 -385 l 134 -385 l 163 -248 l 72 -248 l 89 -168 l 348 -168 l 331 -248 z "},"אּ":{"ha":694,"x_min":-35,"x_max":750,"o":"m 750 875 l 684 562 q 663 489 675 521 q 629 422 651 458 q 476 313 582 349 l 557 0 l 349 0 l 262 415 q 212 315 227 387 l 145 0 l -35 0 l 32 313 q 51 382 40 352 q 83 447 62 412 q 224 555 126 517 l 134 875 l 342 875 l 409 575 l 441 450 q 503 559 485 479 l 570 875 l 750 875 m 210 136 q 259 151 230 151 q 301 137 289 151 q 313 111 313 123 q 286 50 313 71 q 235 34 264 34 q 193 47 205 34 q 182 72 182 60 q 210 136 182 115 z "},"בּ":{"ha":629,"x_min":-37,"x_max":563,"o":"m 149 878 q 306 888 232 888 q 418 882 379 888 q 485 863 458 875 q 529 830 512 850 q 563 722 563 789 q 545 584 563 669 l 452 146 l 543 146 l 512 0 l -37 0 l -7 146 l 271 146 l 364 585 q 374 660 374 629 q 363 708 374 691 q 270 741 343 741 q 134 732 186 741 l 117 730 l 149 878 m 140 474 q 190 490 161 490 q 232 476 220 490 q 244 450 244 462 q 216 388 244 410 q 165 372 195 372 q 124 385 136 372 q 113 410 113 398 q 140 474 113 453 z "},"גּ":{"ha":533,"x_min":-69,"x_max":519,"o":"m 205 873 q 319 888 254 888 q 424 876 384 888 q 486 841 465 863 q 519 736 519 807 q 505 628 519 697 l 371 0 l 241 0 l 237 127 l 227 127 q 194 81 217 107 q 147 36 171 54 q 82 2 123 17 q -2 -14 42 -14 q -69 -6 -29 -14 l -19 161 q 1 157 -17 159 q 37 155 20 155 q 168 182 113 155 q 230 243 210 202 q 267 357 250 283 l 324 628 q 330 671 330 652 q 267 737 330 737 q 186 726 225 737 l 173 722 l 205 873 m 110 474 q 160 490 130 490 q 201 476 189 490 q 214 450 214 462 q 186 388 214 410 q 135 372 165 372 q 94 385 105 372 q 82 410 82 398 q 110 474 82 453 z "},"דּ":{"ha":572,"x_min":77,"x_max":653,"o":"m 653 875 l 624 737 q 482 555 513 700 l 364 0 l 184 0 l 302 560 q 328 628 311 597 q 363 675 345 659 q 429 720 402 711 l 440 724 l 441 729 l 80 729 l 111 875 l 653 875 m 105 474 q 155 490 125 490 q 197 476 184 490 q 209 450 209 462 q 181 388 209 410 q 130 372 160 372 q 89 385 100 372 q 77 410 77 398 q 105 474 77 453 z "},"הּ":{"ha":704,"x_min":-18,"x_max":682,"o":"m 284 879 q 326 884 284 879 q 443 888 367 888 q 566 875 518 888 q 640 838 614 862 q 682 715 682 801 q 665 584 682 668 l 541 0 l 359 0 l 484 585 q 493 659 493 628 q 482 708 493 690 q 389 741 462 741 q 275 735 339 741 q 173 722 212 728 l 134 715 l 165 859 q 284 879 201 870 m -18 0 l 101 558 l 282 558 l 163 0 l -18 0 m 315 474 q 365 490 336 490 q 407 476 395 490 q 419 450 419 462 q 391 388 419 410 q 340 372 370 372 q 299 385 311 372 q 288 410 288 398 q 315 474 288 453 z "},"וּ":{"ha":334,"x_min":-39,"x_max":350,"o":"m -16 0 l 170 875 l 350 875 l 164 0 l -16 0 m -37 418 q -21 450 -34 439 q 12 462 -7 462 q 39 451 31 462 q 47 432 47 441 q 31 388 47 402 q -4 374 16 374 q -31 384 -24 374 q -39 403 -39 394 q -37 418 -39 412 z "},"זּ":{"ha":387,"x_min":-41,"x_max":460,"o":"m 460 875 l 429 729 q 378 659 410 706 q 324 567 346 612 q 286 471 302 522 q 240 294 261 393 l 178 0 l -3 0 l 60 294 q 140 530 90 435 q 229 664 186 620 q 290 719 271 708 l 300 724 l 300 729 l 128 729 l 159 875 l 460 875 m -40 418 q -23 450 -37 439 q 9 462 -10 462 q 36 451 28 462 q 44 432 44 441 q 28 388 44 402 q -7 374 13 374 q -34 384 -26 374 q -41 403 -41 394 q -40 418 -41 412 z "},"טּ":{"ha":704,"x_min":48,"x_max":674,"o":"m 495 629 q 426 741 495 741 l 379 737 l 410 882 q 478 888 444 888 q 582 859 540 888 q 644 784 625 830 q 674 610 674 714 q 655 445 674 533 q 611 289 637 357 q 557 176 585 222 q 496 95 529 130 q 432 40 463 60 q 369 7 401 20 q 313 -9 337 -5 q 266 -14 289 -14 q 220 -9 243 -14 q 171 7 198 -5 q 122 40 144 20 q 82 95 100 60 q 48 255 48 159 q 69 437 48 338 l 162 873 l 346 873 l 254 438 q 229 245 229 316 q 297 134 229 134 q 358 158 330 134 q 415 252 385 182 q 467 424 445 322 q 492 568 488 526 q 495 629 495 610 m 313 474 q 362 490 333 490 q 404 476 392 490 q 416 450 416 462 q 389 388 416 410 q 338 372 368 372 q 296 385 308 372 q 285 410 285 398 q 313 474 285 453 z "},"יּ":{"ha":334,"x_min":-6,"x_max":350,"o":"m 115 296 l 46 296 l 170 875 l 350 875 l 264 471 l 115 296 m -5 572 q 12 605 -1 593 q 44 616 25 616 q 72 606 64 616 q 79 587 79 595 q 64 543 79 557 q 28 529 48 529 q 1 539 9 529 q -6 557 -6 549 q -5 572 -6 566 z "},"ךּ":{"ha":557,"x_min":77,"x_max":521,"o":"m 130 870 q 288 888 214 888 q 403 874 361 888 q 468 831 444 859 q 521 688 517 775 q 521 653 521 676 q 501 500 521 591 l 323 -334 l 143 -334 l 321 500 q 334 602 334 564 q 330 667 334 639 q 308 714 326 695 q 258 734 289 734 q 98 720 201 734 l 130 870 m 105 474 q 155 490 125 490 q 197 476 184 490 q 209 450 209 462 q 181 388 209 410 q 130 372 160 372 q 89 385 100 372 q 77 410 77 398 q 105 474 77 453 z "},"כּ":{"ha":538,"x_min":-54,"x_max":520,"o":"m 130 870 q 287 888 214 888 q 402 874 361 888 q 468 831 444 859 q 519 688 517 775 q 520 653 520 676 q 501 500 520 593 l 470 354 q 391 149 446 238 q 322 65 361 100 q 230 8 284 30 q 124 -14 176 -14 q 22 -7 71 -14 q -54 7 -26 -1 l -21 163 q 132 141 47 141 q 285 354 239 141 l 316 500 q 332 624 332 574 q 258 734 332 734 q 98 723 204 734 l 130 870 m 105 474 q 155 490 125 490 q 197 476 184 490 q 209 450 209 462 q 181 388 209 410 q 130 372 160 372 q 89 385 100 372 q 77 410 77 398 q 105 474 77 453 z "},"לּ":{"ha":558,"x_min":39,"x_max":625,"o":"m 625 875 l 599 753 l 395 337 l 255 0 l 80 0 l 220 337 l 412 729 l 94 729 l 163 1055 l 343 1055 l 305 875 l 625 875 m 66 474 q 116 490 87 490 q 158 476 146 490 q 170 450 170 462 q 142 388 170 410 q 92 372 121 372 q 50 385 62 372 q 39 410 39 398 q 66 474 39 453 z "},"מּ":{"ha":734,"x_min":-65,"x_max":703,"o":"m 395 842 q 407 850 395 842 q 461 874 420 859 q 546 888 502 888 q 622 874 591 888 q 671 833 654 860 q 703 708 703 781 q 678 507 703 624 l 570 0 l 227 0 l 258 146 l 420 146 l 497 506 q 515 637 515 586 q 452 736 515 736 q 400 722 426 736 q 355 686 374 707 q 300 610 318 646 l 292 595 l 115 0 l -65 0 l 103 568 q 132 751 132 659 q 130 798 132 774 l 121 875 l 293 875 q 300 814 298 849 l 302 753 l 311 753 q 320 768 315 759 q 348 801 326 777 q 395 842 370 824 m 326 474 q 376 490 347 490 q 418 476 406 490 q 430 450 430 462 q 402 388 430 410 q 351 372 381 372 q 310 385 321 372 q 298 410 298 398 q 326 474 298 453 z "},"נּ":{"ha":485,"x_min":-65,"x_max":471,"o":"m 161 875 q 273 888 227 888 q 353 882 319 888 q 409 864 387 875 q 445 834 431 852 q 465 795 458 815 q 471 746 471 775 q 455 628 471 703 l 374 248 q 339 122 360 184 q 302 30 317 60 l 288 0 l -65 0 l -35 146 l 159 146 q 205 302 183 198 l 275 628 q 258 728 292 706 q 223 737 243 737 q 188 735 203 737 q 166 732 173 734 q 129 724 144 730 l 161 875 m 32 474 q 82 490 52 490 q 123 476 111 490 q 136 450 136 462 q 108 388 136 410 q 57 372 87 372 q 16 385 27 372 q 4 410 4 398 q 32 474 4 453 z "},"סּ":{"ha":685,"x_min":29,"x_max":656,"o":"m 438 888 q 533 868 488 888 q 582 836 560 856 q 623 781 604 816 q 656 618 656 718 q 637 446 656 535 q 592 289 618 357 q 538 176 566 222 q 477 95 510 130 q 413 40 444 60 q 350 7 382 20 q 294 -9 318 -5 q 247 -14 270 -14 q 201 -9 224 -14 q 152 7 179 -5 q 103 40 125 20 q 63 95 81 60 q 29 256 29 160 q 49 430 29 338 q 116 606 68 522 q 210 726 164 690 l 211 731 l 120 725 l 151 869 q 438 888 274 888 m 476 629 q 407 741 476 741 q 358 735 387 741 q 286 617 313 686 q 237 449 258 549 q 212 308 216 350 q 209 248 209 266 q 278 134 209 134 q 339 158 311 134 q 396 252 366 182 q 448 424 426 322 q 473 568 469 526 q 476 629 476 610 m 303 474 q 353 490 323 490 q 395 476 382 490 q 407 450 407 462 q 379 388 407 410 q 328 372 358 372 q 287 385 298 372 q 275 410 275 398 q 303 474 275 453 z "},"ףּ":{"ha":682,"x_min":56,"x_max":633,"o":"m 56 492 q 66 578 56 532 q 119 715 83 654 q 204 812 156 775 q 416 888 302 888 q 560 836 502 888 q 600 781 582 816 q 633 618 633 718 q 612 438 633 535 l 448 -334 l 268 -334 l 432 438 q 456 625 456 551 q 444 701 456 676 q 418 733 432 725 q 381 741 404 741 q 335 727 358 741 q 299 694 313 713 q 274 650 285 675 q 251 584 257 613 q 245 530 245 555 q 317 436 245 450 l 341 431 l 277 289 l 241 294 q 118 340 162 306 q 56 492 56 389 m 334 629 q 384 644 355 644 q 426 630 414 644 q 438 604 438 616 q 410 543 438 564 q 359 527 389 527 q 318 540 330 527 q 307 565 307 553 q 334 629 307 608 z "},"פּ":{"ha":662,"x_min":19,"x_max":633,"o":"m 454 629 q 385 741 454 741 q 335 727 358 741 q 299 694 313 713 q 274 650 285 675 q 251 584 257 613 q 245 530 245 555 q 317 436 245 450 l 341 431 l 276 289 l 241 294 q 118 340 162 306 q 56 492 56 389 q 66 578 56 532 q 119 715 83 654 q 204 812 156 775 q 416 888 302 888 q 511 868 465 888 q 559 836 538 856 q 600 781 581 816 q 633 618 633 718 q 614 446 633 535 q 570 289 595 357 q 516 176 544 222 q 454 95 488 130 q 391 40 421 60 q 328 7 360 20 q 221 -14 275 -14 q 117 -9 168 -14 q 42 1 66 -4 l 19 5 l 51 157 q 256 134 177 134 q 316 158 289 134 q 374 252 344 182 q 425 424 404 322 q 450 568 447 526 q 454 629 454 610 m 318 629 q 368 644 338 644 q 410 630 397 644 q 422 604 422 616 q 394 543 422 564 q 343 527 373 527 q 302 540 313 527 q 290 565 290 553 q 318 629 290 608 z "},"צּ":{"ha":680,"x_min":-47,"x_max":744,"o":"m 320 875 l 399 496 q 459 571 435 531 q 506 683 484 612 l 563 874 l 744 874 l 695 713 q 676 653 685 678 q 646 580 668 629 q 600 494 624 532 q 534 412 575 456 q 445 334 493 367 l 539 107 l 517 0 l -47 0 l -16 146 l 219 146 l 334 136 l 334 139 l 258 311 l 132 875 l 320 875 m 83 371 q 133 387 103 387 q 174 373 162 387 q 186 347 186 359 q 159 285 186 307 q 108 269 138 269 q 66 282 78 269 q 55 307 55 295 q 83 371 55 350 z "},"קּ":{"ha":717,"x_min":-73,"x_max":781,"o":"m 757 762 l 562 349 q 474 157 505 231 q 431 23 444 82 l 426 0 l 247 0 l 252 23 q 372 342 278 149 l 555 729 l 153 729 l 184 875 l 781 875 l 757 762 m 328 559 q 378 575 349 575 q 420 561 408 575 q 432 535 432 547 q 404 473 432 495 q 353 458 383 458 q 312 471 323 458 q 300 496 300 484 q 328 559 300 538 m -73 -334 l 109 524 l 290 524 l 108 -334 l -73 -334 z "},"רּ":{"ha":557,"x_min":90,"x_max":536,"o":"m 121 878 q 298 888 224 888 q 419 875 372 888 q 494 839 467 862 q 528 781 520 815 q 536 725 536 747 q 534 676 536 704 q 518 584 532 648 l 394 0 l 213 0 l 337 585 q 347 649 347 630 q 347 673 347 667 q 320 724 345 707 q 245 741 296 741 q 90 731 194 741 l 121 878 m 117 474 q 167 490 138 490 q 209 476 197 490 q 221 450 221 462 q 193 388 221 410 q 142 372 172 372 q 101 385 113 372 q 90 410 90 398 q 117 474 90 453 z "},"שּ":{"ha":876,"x_min":6,"x_max":943,"o":"m 252 0 l 6 0 l 122 875 l 302 875 l 243 425 q 317 456 290 427 q 363 547 345 484 l 458 875 l 637 875 l 543 549 q 227 296 471 304 l 208 146 l 283 146 q 507 235 412 146 q 648 481 602 324 l 764 875 l 943 875 l 827 482 q 757 305 798 382 q 712 233 740 273 q 654 162 685 193 q 581 99 624 131 q 491 47 538 68 q 252 0 382 0 m 363 307 q 413 323 383 323 q 454 309 442 323 q 467 283 467 295 q 439 221 467 243 q 388 205 418 205 q 347 218 358 205 q 335 243 335 231 q 363 307 335 286 z "},"תּ":{"ha":722,"x_min":-71,"x_max":702,"o":"m 188 865 q 201 867 188 865 q 297 879 214 870 q 459 888 380 888 q 586 875 538 888 q 661 838 634 862 q 702 715 702 801 q 684 584 702 668 l 560 0 l 379 0 l 503 585 q 513 660 513 629 q 503 708 513 690 q 408 741 482 741 q 370 741 385 741 l 264 247 q 227 111 245 151 q 188 47 203 62 q 154 20 172 33 q 115 1 136 8 q 9 -14 70 -14 q -61 0 -30 -14 l -71 5 l -39 150 q 1 138 -21 138 q 38 147 24 138 q 60 174 52 156 q 83 247 75 205 l 185 724 l 117 711 l 148 856 q 188 865 162 859 m 349 474 q 399 490 370 490 q 441 476 429 490 q 453 450 453 462 q 425 388 453 410 q 374 372 404 372 q 333 385 345 372 q 321 410 321 398 q 349 474 321 453 z "},"וֹ":{"ha":334,"x_min":-16,"x_max":350,"o":"m 208 1058 q 258 1074 229 1074 q 300 1060 288 1074 q 312 1034 312 1046 q 284 972 312 994 q 233 956 263 956 q 192 969 203 956 q 180 994 180 982 q 208 1058 180 1037 m -16 0 l 170 875 l 350 875 l 164 0 l -16 0 z "}," ":{"ha":343,"x_min":0,"x_max":0,"o":""}}}
